%TF.GenerationSoftware,Altium Limited,Altium Designer,24.6.1 (21)*%
G04 Layer_Color=65535*
%FSLAX45Y45*%
%MOMM*%
%TF.SameCoordinates,00C5B58C-7B9D-40F4-BCB4-C120E55E61B4*%
%TF.FilePolarity,Positive*%
%TF.FileFunction,Legend,Top*%
%TF.Part,Single*%
G01*
G75*
%TA.AperFunction,NonConductor*%
%ADD11C,0.25400*%
%ADD27C,0.20000*%
%ADD28C,0.12700*%
D11*
X10160000Y3810000D02*
G03*
X10160000Y3810000I-400000J0D01*
G01*
X9857500Y4055000D02*
X9962500D01*
X9557500D02*
X9662500D01*
X9610000Y4002500D02*
Y4107500D01*
X9519608Y6308284D02*
X9494216Y6333675D01*
X9443433D01*
X9418041Y6308284D01*
Y6206717D01*
X9443433Y6181325D01*
X9494216D01*
X9519608Y6206717D01*
X9646567Y6181325D02*
Y6333675D01*
X9570392Y6257500D01*
X9671959D01*
X10102108Y6120784D02*
X10076716Y6146175D01*
X10025933D01*
X10000541Y6120784D01*
Y6019217D01*
X10025933Y5993825D01*
X10076716D01*
X10102108Y6019217D01*
X10152892Y6120784D02*
X10178284Y6146175D01*
X10229067D01*
X10254459Y6120784D01*
Y6095392D01*
X10229067Y6070000D01*
X10203675D01*
X10229067D01*
X10254459Y6044608D01*
Y6019217D01*
X10229067Y5993825D01*
X10178284D01*
X10152892Y6019217D01*
X3818433Y8288825D02*
Y8390392D01*
X3869217Y8441175D01*
X3920000Y8390392D01*
Y8288825D01*
Y8365000D01*
X3818433D01*
X3970784Y8288825D02*
X4021567D01*
X3996176D01*
Y8441175D01*
X3970784Y8415784D01*
X10291082Y6528675D02*
X10392650D01*
X10341866D01*
Y6376325D01*
X10443433D02*
Y6528675D01*
X10519608D01*
X10545000Y6503283D01*
Y6452500D01*
X10519608Y6427108D01*
X10443433D01*
X10595784Y6503283D02*
X10697351Y6401716D01*
X10595784D02*
X10697351Y6503283D01*
X10595784Y6452500D02*
X10697351D01*
X10646567Y6401716D02*
Y6503283D01*
X10748134Y6376325D02*
X10798918D01*
X10773526D01*
Y6528675D01*
X10748134Y6503283D01*
X10301866Y7333675D02*
X10403433D01*
X10352649D01*
Y7181325D01*
X10454217D02*
Y7333675D01*
X10530392D01*
X10555784Y7308284D01*
Y7257500D01*
X10530392Y7232108D01*
X10454217D01*
X10606567Y7308284D02*
X10708135Y7206717D01*
X10606567D02*
X10708135Y7308284D01*
X10606567Y7257500D02*
X10708135D01*
X10657351Y7206717D02*
Y7308284D01*
X2588190Y8606175D02*
X2689758D01*
X2638974D01*
Y8453825D01*
X2740541D02*
Y8606175D01*
X2816716D01*
X2842108Y8580783D01*
Y8530000D01*
X2816716Y8504608D01*
X2740541D01*
X2892892Y8580783D02*
X2994459Y8479216D01*
X2892892D02*
X2994459Y8580783D01*
X2892892Y8530000D02*
X2994459D01*
X2943675Y8479216D02*
Y8580783D01*
X3045243D02*
X3070634Y8606175D01*
X3121418D01*
X3146810Y8580783D01*
Y8555392D01*
X3121418Y8530000D01*
X3096026D01*
X3121418D01*
X3146810Y8504608D01*
Y8479216D01*
X3121418Y8453825D01*
X3070634D01*
X3045243Y8479216D01*
X3210690Y8598675D02*
X3312258D01*
X3261474D01*
Y8446325D01*
X3363041D02*
Y8598675D01*
X3439216D01*
X3464608Y8573284D01*
Y8522500D01*
X3439216Y8497108D01*
X3363041D01*
X3515392Y8573284D02*
X3616959Y8471717D01*
X3515392D02*
X3616959Y8573284D01*
X3515392Y8522500D02*
X3616959D01*
X3566175Y8471717D02*
Y8573284D01*
X3769310Y8446325D02*
X3667742D01*
X3769310Y8547892D01*
Y8573284D01*
X3743918Y8598675D01*
X3693134D01*
X3667742Y8573284D01*
X6378433Y9493825D02*
Y9646175D01*
X6454608D01*
X6480000Y9620783D01*
Y9570000D01*
X6454608Y9544608D01*
X6378433D01*
X6429217D02*
X6480000Y9493825D01*
X6530784D02*
X6581567D01*
X6556176D01*
Y9646175D01*
X6530784Y9620783D01*
X6563041Y9203825D02*
Y9356175D01*
X6639217D01*
X6664608Y9330783D01*
Y9280000D01*
X6639217Y9254608D01*
X6563041D01*
X6613825D02*
X6664608Y9203825D01*
X6816959D02*
X6715392D01*
X6816959Y9305392D01*
Y9330783D01*
X6791567Y9356175D01*
X6740784D01*
X6715392Y9330783D01*
X6813041Y8383825D02*
Y8536175D01*
X6889217D01*
X6914608Y8510784D01*
Y8460000D01*
X6889217Y8434608D01*
X6813041D01*
X6863825D02*
X6914608Y8383825D01*
X6965392Y8510784D02*
X6990784Y8536175D01*
X7041567D01*
X7066959Y8510784D01*
Y8485392D01*
X7041567Y8460000D01*
X7016175D01*
X7041567D01*
X7066959Y8434608D01*
Y8409217D01*
X7041567Y8383825D01*
X6990784D01*
X6965392Y8409217D01*
X9766300Y7825740D02*
Y7978091D01*
X9842475D01*
X9867867Y7952699D01*
Y7901915D01*
X9842475Y7876523D01*
X9766300D01*
X9817083D02*
X9867867Y7825740D01*
X9994826D02*
Y7978091D01*
X9918651Y7901915D01*
X10020218D01*
X9474167Y4424639D02*
X9448775Y4450031D01*
X9397992D01*
X9372600Y4424639D01*
Y4323072D01*
X9397992Y4297680D01*
X9448775D01*
X9474167Y4323072D01*
X9626518Y4297680D02*
X9524951D01*
X9626518Y4399247D01*
Y4424639D01*
X9601126Y4450031D01*
X9550343D01*
X9524951Y4424639D01*
X9425940Y8077200D02*
Y8229551D01*
X9502115D01*
X9527507Y8204159D01*
Y8153375D01*
X9502115Y8127983D01*
X9425940D01*
X9476723D02*
X9527507Y8077200D01*
X9679858Y8229551D02*
X9578291D01*
Y8153375D01*
X9629074Y8178767D01*
X9654466D01*
X9679858Y8153375D01*
Y8102592D01*
X9654466Y8077200D01*
X9603683D01*
X9578291Y8102592D01*
X5976587Y9621479D02*
X5951195Y9646871D01*
X5900412D01*
X5875020Y9621479D01*
Y9519912D01*
X5900412Y9494520D01*
X5951195D01*
X5976587Y9519912D01*
X6027371Y9494520D02*
X6078154D01*
X6052763D01*
Y9646871D01*
X6027371Y9621479D01*
X3703320Y9870391D02*
Y9743432D01*
X3728712Y9718040D01*
X3779495D01*
X3804887Y9743432D01*
Y9870391D01*
X3855671Y9718040D02*
X3906454D01*
X3881063D01*
Y9870391D01*
X3855671Y9844999D01*
X9370027Y3535639D02*
X9344635Y3561031D01*
X9293852D01*
X9268460Y3535639D01*
Y3510247D01*
X9293852Y3484855D01*
X9344635D01*
X9370027Y3459463D01*
Y3434072D01*
X9344635Y3408680D01*
X9293852D01*
X9268460Y3434072D01*
X9420811Y3408680D02*
X9471594D01*
X9446203D01*
Y3561031D01*
X9420811Y3535639D01*
X4870461Y7735322D02*
Y7887673D01*
X4921244Y7836889D01*
X4972028Y7887673D01*
Y7735322D01*
X5022812Y7887673D02*
X5124379D01*
Y7862281D01*
X5022812Y7760714D01*
Y7735322D01*
X7154681Y7735522D02*
Y7887873D01*
X7205464Y7837089D01*
X7256248Y7887873D01*
Y7735522D01*
X7408599Y7887873D02*
X7357815Y7862481D01*
X7307032Y7811697D01*
Y7760914D01*
X7332423Y7735522D01*
X7383207D01*
X7408599Y7760914D01*
Y7786305D01*
X7383207Y7811697D01*
X7307032D01*
X4868681Y3489922D02*
Y3642273D01*
X4919464Y3591489D01*
X4970248Y3642273D01*
Y3489922D01*
X5122599Y3642273D02*
X5021032D01*
Y3566097D01*
X5071815Y3591489D01*
X5097207D01*
X5122599Y3566097D01*
Y3515314D01*
X5097207Y3489922D01*
X5046423D01*
X5021032Y3515314D01*
X2654880Y3396720D02*
Y3549071D01*
X2705663Y3498287D01*
X2756447Y3549071D01*
Y3396720D01*
X2883406D02*
Y3549071D01*
X2807231Y3472895D01*
X2908798D01*
X10535920Y3395980D02*
Y3548331D01*
X10586703Y3497547D01*
X10637487Y3548331D01*
Y3395980D01*
X10688271Y3522939D02*
X10713663Y3548331D01*
X10764446D01*
X10789838Y3522939D01*
Y3497547D01*
X10764446Y3472155D01*
X10739054D01*
X10764446D01*
X10789838Y3446763D01*
Y3421372D01*
X10764446Y3395980D01*
X10713663D01*
X10688271Y3421372D01*
X10536660Y9946640D02*
Y10098991D01*
X10587444Y10048207D01*
X10638227Y10098991D01*
Y9946640D01*
X10790578D02*
X10689011D01*
X10790578Y10048207D01*
Y10073599D01*
X10765186Y10098991D01*
X10714403D01*
X10689011Y10073599D01*
X2654300Y9946320D02*
Y10098671D01*
X2705083Y10047887D01*
X2755867Y10098671D01*
Y9946320D01*
X2806651D02*
X2857434D01*
X2832043D01*
Y10098671D01*
X2806651Y10073279D01*
D27*
X3938000Y8604500D02*
G03*
X3938000Y8604500I-10000J0D01*
G01*
D28*
X6607000Y8745000D02*
Y8995000D01*
X7619000D01*
X6607000Y8745000D02*
X7619000D01*
Y8995000D01*
X10335000Y7511000D02*
X10585000D01*
X10335000Y8269000D02*
X10585000D01*
X10335000Y7511000D02*
Y8269000D01*
X10585000Y7511000D02*
Y8269000D01*
X8762500Y3156000D02*
X9012500D01*
X8762500Y3914000D02*
X9012500D01*
X8762500Y3156000D02*
Y3914000D01*
X9012500Y3156000D02*
Y3914000D01*
X3025000Y5369000D02*
X3275000D01*
X3025000Y4611000D02*
X3275000D01*
Y5369000D01*
X3025000Y4611000D02*
Y5369000D01*
X3045000Y5535500D02*
X3291500D01*
X3295000Y5539000D01*
Y6801500D01*
X3045000Y5535500D02*
Y6801500D01*
X3295000D01*
X9573000Y6420000D02*
X9990500D01*
X9573000Y6535000D02*
X9990500D01*
X9905500Y6212500D02*
X10323000D01*
X9905500Y6327500D02*
X10323000D01*
X3788740Y1432948D02*
Y7780700D01*
Y1432948D02*
X3792970Y1407557D01*
X3803550Y1384282D01*
X3818360Y1363123D01*
X3839520Y1346196D01*
X3862800Y1337732D01*
X3890300Y1333500D01*
X9019290D01*
X9044681Y1337732D01*
X9067956Y1346196D01*
X9089116Y1363123D01*
X9106043Y1384282D01*
X9114507Y1407557D01*
X9118738Y1432948D01*
Y7833600D01*
X9114507Y7858990D02*
X9118738Y7833600D01*
X9106043Y7882270D02*
X9114507Y7858990D01*
X9089116Y7903430D02*
X9106043Y7882270D01*
X9067956Y7920360D02*
X9089116Y7903430D01*
X9044681Y7928820D02*
X9067956Y7920360D01*
X9019290Y7933050D02*
X9044681Y7928820D01*
X8864828Y7933050D02*
X9019290D01*
X8610918Y8186960D02*
X8864828Y7933050D01*
X5337590Y8186960D02*
X8610918D01*
X5083680Y7933050D02*
X5337590Y8186960D01*
X3941090Y7933050D02*
X5083680D01*
X3788740Y7780700D02*
X3941090Y7933050D01*
X10641500Y6590000D02*
Y6596150D01*
Y6883850D02*
Y6890000D01*
X10578500Y6883850D02*
Y6890000D01*
Y6590000D02*
Y6596150D01*
Y6890000D02*
X10641500D01*
X10578500Y6590000D02*
X10641500D01*
X10281500Y6840000D02*
Y6846150D01*
Y7133850D02*
Y7140000D01*
X10218500Y7133850D02*
Y7140000D01*
Y6840000D02*
Y6846150D01*
Y7140000D02*
X10281500D01*
X10218500Y6840000D02*
X10281500D01*
X3179000Y8000000D02*
Y8006150D01*
Y8293850D02*
Y8300000D01*
X3116000Y8293850D02*
Y8300000D01*
Y8000000D02*
Y8006150D01*
Y8300000D02*
X3179000D01*
X3116000Y8000000D02*
X3179000D01*
X3579000D02*
Y8006150D01*
Y8293850D02*
Y8300000D01*
X3516000Y8293850D02*
Y8300000D01*
Y8000000D02*
Y8006150D01*
Y8300000D02*
X3579000D01*
X3516000Y8000000D02*
X3579000D01*
X6857500Y9457500D02*
Y9682500D01*
Y9457500D02*
X7502500D01*
Y9682500D01*
X6857500D02*
X7502500D01*
X7117500Y9157500D02*
Y9382500D01*
Y9157500D02*
X7762500D01*
Y9382500D01*
X7117500D02*
X7762500D01*
X8012500Y8357500D02*
Y8582500D01*
X7367500D02*
X8012500D01*
X7367500Y8357500D02*
Y8582500D01*
Y8357500D02*
X8012500D01*
X3705500Y8780000D02*
X3837500D01*
X3705500D02*
Y9440000D01*
X3837500D01*
X5542500D02*
X5674500D01*
Y8780000D02*
Y9440000D01*
X5542500Y8780000D02*
X5674500D01*
X9312900Y2580400D02*
X10295400D01*
Y3325400D01*
X9312900D02*
X10295400D01*
X9312900Y2580400D02*
Y3325400D01*
Y2637900D02*
X10295400D01*
X9407500Y7762500D02*
X9632500D01*
X9407500Y7117500D02*
Y7762500D01*
Y7117500D02*
X9632500D01*
Y7762500D01*
X9747500Y7512500D02*
X9972500D01*
X9747500Y6867500D02*
Y7512500D01*
Y6867500D02*
X9972500D01*
Y7512500D01*
X5862500Y8885000D02*
Y9302500D01*
X5977500Y8885000D02*
Y9302500D01*
%TF.MD5,952ab4b93a57cbe8a2506b9620b0b91f*%
M02*
