%TF.GenerationSoftware,Altium Limited,Altium Designer,24.6.1 (21)*%
G04 Layer_Physical_Order=2*
G04 Layer_Color=16711680*
%FSLAX45Y45*%
%MOMM*%
%TF.SameCoordinates,D38A5136-4A18-43D4-87FF-360C0F5B8511*%
%TF.FilePolarity,Positive*%
%TF.FileFunction,Copper,L2,Bot,Signal*%
%TF.Part,Single*%
G01*
G75*
%TA.AperFunction,ConnectorPad*%
%ADD11R,2.41300X5.08000*%
%TA.AperFunction,ViaPad*%
%ADD14C,2.00000*%
G36*
X27428784Y1041486D02*
X27419809Y1032500D01*
X24209200D01*
Y1289959D01*
X24063148D01*
X23917101D01*
Y1032500D01*
X23332899D01*
Y1289959D01*
X23186848D01*
X23040800D01*
Y1032500D01*
X18061700D01*
Y1289960D01*
X17915649D01*
X17769600D01*
Y1032500D01*
X17185400D01*
Y1289960D01*
X17039349D01*
X16893300D01*
Y1032500D01*
X11914200Y1032500D01*
Y1289960D01*
X11768150D01*
X11622100D01*
Y1032500D01*
X11037900D01*
Y1289960D01*
X10891850D01*
X10745800D01*
Y1032500D01*
X5768550D01*
Y1289960D01*
X5622500D01*
X5476450D01*
Y1032500D01*
X4892250D01*
Y1289960D01*
X4746200D01*
X4600150D01*
Y1032500D01*
X1472500D01*
Y7907500D01*
X27419998Y7910043D01*
X27428784Y1041486D01*
D02*
G37*
%LPC*%
G36*
X17185400Y1582060D02*
X17052049D01*
Y1315360D01*
X17185400D01*
Y1582060D01*
D02*
G37*
G36*
X18061700D02*
X17928349D01*
Y1315360D01*
X18061700D01*
Y1582060D01*
D02*
G37*
G36*
X11914200D02*
X11780850D01*
Y1315360D01*
X11914200D01*
Y1582060D01*
D02*
G37*
G36*
X11037900D02*
X10904550D01*
Y1315360D01*
X11037900D01*
Y1582060D01*
D02*
G37*
G36*
X5768550D02*
X5635200D01*
Y1315360D01*
X5768550D01*
Y1582060D01*
D02*
G37*
G36*
X4892250D02*
X4758900D01*
Y1315360D01*
X4892250D01*
Y1582060D01*
D02*
G37*
G36*
X17902950D02*
X17769600D01*
Y1315360D01*
X17902950D01*
Y1582060D01*
D02*
G37*
G36*
X17026649D02*
X16893300D01*
Y1315360D01*
X17026649D01*
Y1582060D01*
D02*
G37*
G36*
X5609800D02*
X5476450D01*
Y1315360D01*
X5609800D01*
Y1582060D01*
D02*
G37*
G36*
X4733500D02*
X4600150D01*
Y1315360D01*
X4733500D01*
Y1582060D01*
D02*
G37*
G36*
X11755450D02*
X11622100D01*
Y1315360D01*
X11755450D01*
Y1582060D01*
D02*
G37*
G36*
X10879150D02*
X10745800D01*
Y1315360D01*
X10879150D01*
Y1582060D01*
D02*
G37*
G36*
X24209200D02*
X24075848D01*
Y1315359D01*
X24209200D01*
Y1582060D01*
D02*
G37*
G36*
X23332899D02*
X23199548D01*
Y1315359D01*
X23332899D01*
Y1582060D01*
D02*
G37*
G36*
X24050449D02*
X23917101D01*
Y1315359D01*
X24050449D01*
Y1582060D01*
D02*
G37*
G36*
X23174149D02*
X23040800D01*
Y1315359D01*
X23174149D01*
Y1582060D01*
D02*
G37*
%LPD*%
D11*
X11768150Y1302660D02*
D03*
X10891850D02*
D03*
X5622500D02*
D03*
X4746200D02*
D03*
X17915649D02*
D03*
X17039349D02*
D03*
X24063150D02*
D03*
X23186850D02*
D03*
D14*
X24070000Y1440000D02*
D03*
Y1177500D02*
D03*
X23185001Y1437500D02*
D03*
Y1175000D02*
D03*
X17920000Y1437500D02*
D03*
Y1175000D02*
D03*
X17035001Y1437500D02*
D03*
Y1175000D02*
D03*
X11770000Y1437500D02*
D03*
Y1175000D02*
D03*
X10890000D02*
D03*
Y1437500D02*
D03*
X5622500Y1172500D02*
D03*
X5625000Y1432500D02*
D03*
X4745000Y1175000D02*
D03*
Y1425000D02*
D03*
%TF.MD5,4d63418034bc44d5455a29f6ffa2e031*%
M02*
