%TF.GenerationSoftware,Altium Limited,Altium Designer,24.6.1 (21)*%
G04 Layer_Physical_Order=2*
G04 Layer_Color=16711680*
%FSLAX45Y45*%
%MOMM*%
%TF.SameCoordinates,104D0E94-22AC-47F8-8689-0ABA5F01EAEE*%
%TF.FilePolarity,Positive*%
%TF.FileFunction,Copper,L2,Bot,Signal*%
%TF.Part,Single*%
G01*
G75*
%TA.AperFunction,ConnectorPad*%
%ADD11R,2.41300X5.08000*%
%TA.AperFunction,ViaPad*%
%ADD16C,1.50000*%
G36*
X4270800Y13271954D02*
Y13015199D01*
X4416849D01*
X4562900D01*
Y13262917D01*
X4571881Y13271896D01*
X5147100Y13271783D01*
Y13015199D01*
X5293149D01*
X5439200D01*
Y13262746D01*
X5448181Y13271725D01*
X10370800Y13270766D01*
Y13025201D01*
X10516850D01*
X10662900D01*
Y13261728D01*
X10671881Y13270708D01*
X11247100Y13270595D01*
Y13025201D01*
X11393150D01*
X11539200D01*
Y13261557D01*
X11548181Y13270535D01*
X14300000Y13270000D01*
X14302498Y1041482D01*
X14293520Y1032500D01*
X11548550D01*
Y1277300D01*
X11402500D01*
X11256450D01*
Y1032500D01*
X10672250D01*
Y1277300D01*
X10526200D01*
X10380150D01*
Y1032500D01*
X5448550D01*
Y1279800D01*
X5302500D01*
X5156450D01*
Y1032500D01*
X4572250D01*
Y1279800D01*
X4426200D01*
X4280150D01*
Y1032500D01*
X1472500D01*
Y13263519D01*
X1481481Y13272498D01*
X4270800Y13271954D01*
D02*
G37*
%LPC*%
G36*
X11539200Y12999802D02*
X11405850D01*
Y12733100D01*
X11539200D01*
Y12999802D01*
D02*
G37*
G36*
X11380450D02*
X11247100D01*
Y12733100D01*
X11380450D01*
Y12999802D01*
D02*
G37*
G36*
X10662900D02*
X10529550D01*
Y12733100D01*
X10662900D01*
Y12999802D01*
D02*
G37*
G36*
X10504150D02*
X10370800D01*
Y12733100D01*
X10504150D01*
Y12999802D01*
D02*
G37*
G36*
X5439200Y12989799D02*
X5305849D01*
Y12723100D01*
X5439200D01*
Y12989799D01*
D02*
G37*
G36*
X5280449D02*
X5147100D01*
Y12723100D01*
X5280449D01*
Y12989799D01*
D02*
G37*
G36*
X4562900D02*
X4429549D01*
Y12723100D01*
X4562900D01*
Y12989799D01*
D02*
G37*
G36*
X4404149D02*
X4270800D01*
Y12723100D01*
X4404149D01*
Y12989799D01*
D02*
G37*
G36*
X5448550Y1571900D02*
X5315200D01*
Y1305200D01*
X5448550D01*
Y1571900D01*
D02*
G37*
G36*
X4572250D02*
X4438900D01*
Y1305200D01*
X4572250D01*
Y1571900D01*
D02*
G37*
G36*
X5289800D02*
X5156450D01*
Y1305200D01*
X5289800D01*
Y1571900D01*
D02*
G37*
G36*
X4413500D02*
X4280150D01*
Y1305200D01*
X4413500D01*
Y1571900D01*
D02*
G37*
G36*
X11548550Y1569400D02*
X11415200D01*
Y1302700D01*
X11548550D01*
Y1569400D01*
D02*
G37*
G36*
X10672250D02*
X10538900D01*
Y1302700D01*
X10672250D01*
Y1569400D01*
D02*
G37*
G36*
X11389800D02*
X11256450D01*
Y1302700D01*
X11389800D01*
Y1569400D01*
D02*
G37*
G36*
X10513500D02*
X10380150D01*
Y1302700D01*
X10513500D01*
Y1569400D01*
D02*
G37*
%LPD*%
D11*
X10516850Y13012500D02*
D03*
X11393150D02*
D03*
X4416850Y13002499D02*
D03*
X5293150D02*
D03*
X11402500Y1290000D02*
D03*
X10526200D02*
D03*
X5302500Y1292500D02*
D03*
X4426200D02*
D03*
D16*
X5300000Y1172500D02*
D03*
X5307500Y1440000D02*
D03*
X4417500Y1180000D02*
D03*
X4420000Y1440000D02*
D03*
X11407500Y1175000D02*
D03*
Y1432500D02*
D03*
X10517500Y1167500D02*
D03*
X10522500Y1415000D02*
D03*
X11397500Y13155000D02*
D03*
Y12900000D02*
D03*
X10512500Y12907500D02*
D03*
Y13147501D02*
D03*
X5295000Y12887500D02*
D03*
X5297500Y13132500D02*
D03*
X4417500D02*
D03*
Y12895000D02*
D03*
%TF.MD5,7a73da6f0e15ea1a8fc7287ee7a6a7a9*%
M02*
