%TF.GenerationSoftware,Altium Limited,Altium Designer,24.6.1 (21)*%
G04 Layer_Physical_Order=2*
G04 Layer_Color=16711680*
%FSLAX45Y45*%
%MOMM*%
%TF.SameCoordinates,ADE2F598-D5D4-4EA7-B13B-C0ACE0DB1145*%
%TF.FilePolarity,Positive*%
%TF.FileFunction,Copper,L2,Bot,Signal*%
%TF.Part,Single*%
G01*
G75*
%TA.AperFunction,ConnectorPad*%
%ADD11R,2.41300X5.08000*%
%TA.AperFunction,ViaPad*%
%ADD16C,1.50000*%
G36*
X26994989Y1041486D02*
X26986014Y1032500D01*
X23854201D01*
Y1277461D01*
X23708151D01*
X23562100D01*
Y1032500D01*
X22977901D01*
Y1277461D01*
X22831851D01*
X22685800D01*
Y1032500D01*
X17759200D01*
Y1279961D01*
X17613150D01*
X17467101D01*
Y1032500D01*
X16882899D01*
Y1279961D01*
X16736850D01*
X16590800D01*
Y1032500D01*
X11659200D01*
Y1277459D01*
X11513149D01*
X11367100D01*
Y1032500D01*
X10782900D01*
Y1277459D01*
X10636849D01*
X10490800D01*
Y1032500D01*
X5539200D01*
Y1284960D01*
X5393150D01*
X5247100D01*
Y1032500D01*
X4662900D01*
Y1284960D01*
X4516850D01*
X4370800D01*
Y1032500D01*
X1472500D01*
Y6892500D01*
X26987500Y6895000D01*
X26994989Y1041486D01*
D02*
G37*
%LPC*%
G36*
X5539200Y1577060D02*
X5405850D01*
Y1310360D01*
X5539200D01*
Y1577060D01*
D02*
G37*
G36*
X4662900D02*
X4529550D01*
Y1310360D01*
X4662900D01*
Y1577060D01*
D02*
G37*
G36*
X5380450D02*
X5247100D01*
Y1310360D01*
X5380450D01*
Y1577060D01*
D02*
G37*
G36*
X4504150D02*
X4370800D01*
Y1310360D01*
X4504150D01*
Y1577060D01*
D02*
G37*
G36*
X17759200Y1572060D02*
X17625850D01*
Y1305361D01*
X17759200D01*
Y1572060D01*
D02*
G37*
G36*
X16882899D02*
X16749550D01*
Y1305361D01*
X16882899D01*
Y1572060D01*
D02*
G37*
G36*
X16724150D02*
X16590800D01*
Y1305361D01*
X16724150D01*
Y1572060D01*
D02*
G37*
G36*
X17600450D02*
X17467101D01*
Y1305361D01*
X17600450D01*
Y1572060D01*
D02*
G37*
G36*
X23854201Y1569560D02*
X23720851D01*
Y1302861D01*
X23854201D01*
Y1569560D01*
D02*
G37*
G36*
X22977901D02*
X22844551D01*
Y1302861D01*
X22977901D01*
Y1569560D01*
D02*
G37*
G36*
X23695451D02*
X23562100D01*
Y1302861D01*
X23695451D01*
Y1569560D01*
D02*
G37*
G36*
X22819151D02*
X22685800D01*
Y1302861D01*
X22819151D01*
Y1569560D01*
D02*
G37*
G36*
X11659200D02*
X11525849D01*
Y1302859D01*
X11659200D01*
Y1569560D01*
D02*
G37*
G36*
X10782900D02*
X10649549D01*
Y1302859D01*
X10782900D01*
Y1569560D01*
D02*
G37*
G36*
X11500449D02*
X11367100D01*
Y1302859D01*
X11500449D01*
Y1569560D01*
D02*
G37*
G36*
X10624149D02*
X10490800D01*
Y1302859D01*
X10624149D01*
Y1569560D01*
D02*
G37*
%LPD*%
D11*
X17613150Y1292660D02*
D03*
X16736850D02*
D03*
X23708150Y1290160D02*
D03*
X22831850D02*
D03*
X11513150D02*
D03*
X10636850D02*
D03*
X5393150Y1297660D02*
D03*
X4516850D02*
D03*
D16*
X10632500Y1422500D02*
D03*
Y1150000D02*
D03*
X11515000Y1417500D02*
D03*
Y1162500D02*
D03*
X17612500Y1150000D02*
D03*
X23710001Y1412500D02*
D03*
Y1160000D02*
D03*
X22827499D02*
D03*
X22825000Y1417500D02*
D03*
X17617500Y1410000D02*
D03*
X16732500Y1162500D02*
D03*
Y1417500D02*
D03*
X5397500Y1432500D02*
D03*
X5400000Y1162500D02*
D03*
X4512500D02*
D03*
Y1440000D02*
D03*
%TF.MD5,efb878afa10a5e50719b37421af54032*%
M02*
