%TF.GenerationSoftware,Altium Limited,Altium Designer,24.6.1 (21)*%
G04 Layer_Physical_Order=1*
G04 Layer_Color=255*
%FSLAX45Y45*%
%MOMM*%
%TF.SameCoordinates,D38A5136-4A18-43D4-87FF-360C0F5B8511*%
%TF.FilePolarity,Positive*%
%TF.FileFunction,Copper,L1,Top,Signal*%
%TF.Part,Single*%
G01*
G75*
%TA.AperFunction,ConnectorPad*%
%ADD10R,2.28600X5.08000*%
%ADD11R,2.41300X5.08000*%
%TA.AperFunction,Conductor*%
%ADD12C,0.01270*%
%TA.AperFunction,NonConductor*%
%ADD13C,0.01270*%
%TA.AperFunction,ViaPad*%
%ADD14C,2.00000*%
G36*
X3083124Y5930000D02*
X7283808D01*
Y3004365D01*
X7283135Y3003692D01*
X5403135D01*
X5402462Y3004365D01*
Y3703692D01*
X5303808D01*
Y1089365D01*
X5303135Y1088692D01*
X5063135D01*
X5062462Y1089365D01*
Y3703692D01*
X4963808D01*
Y3004365D01*
X4963135Y3003692D01*
X3083135D01*
X3082462Y3004365D01*
X3083124Y5930000D01*
D02*
G37*
G36*
X9230125D02*
X13430807D01*
Y3004365D01*
X13430135Y3003692D01*
X11550135D01*
X11549462Y3004365D01*
Y3703692D01*
X11450808D01*
Y1089365D01*
X11450135Y1088692D01*
X11210135D01*
X11209462Y1089365D01*
Y3703692D01*
X11110808D01*
Y3004365D01*
X11110135Y3003692D01*
X9230135D01*
X9229462Y3004365D01*
X9230125Y5930000D01*
D02*
G37*
G36*
X15377124D02*
X19577808D01*
Y3004365D01*
X19577135Y3003692D01*
X17697134D01*
X17696461Y3004365D01*
Y3703692D01*
X17597807D01*
Y1089365D01*
X17597134Y1088692D01*
X17357135D01*
X17356462Y1089365D01*
Y3703692D01*
X17257808D01*
Y3004365D01*
X17257135Y3003692D01*
X15377135D01*
X15376462Y3004365D01*
X15377124Y5930000D01*
D02*
G37*
G36*
X21524124D02*
X25724808D01*
Y3004365D01*
X25724136Y3003692D01*
X23844135D01*
X23843462Y3004365D01*
Y3703692D01*
X23744807D01*
Y1089365D01*
X23744135Y1088692D01*
X23504135D01*
X23503462Y1089365D01*
Y3703692D01*
X23404808D01*
Y3004365D01*
X23404135Y3003692D01*
X21524135D01*
X21523462Y3004365D01*
X21524124Y5930000D01*
D02*
G37*
D10*
X11330000Y1302660D02*
D03*
X5184350D02*
D03*
X17477499D02*
D03*
X23625000D02*
D03*
D11*
X10891850D02*
D03*
X11768150D02*
D03*
X4746200D02*
D03*
X5622500D02*
D03*
X17039349D02*
D03*
X17915649D02*
D03*
X23186850D02*
D03*
X24063150D02*
D03*
D12*
X23504135Y3004365D02*
X23744135D01*
X23504135D02*
X23744135D01*
Y1089365D02*
Y3004365D01*
X23504135Y1089365D02*
Y3004365D01*
X23844135D02*
X25724136D01*
X23844135D02*
Y3704365D01*
X23744135D02*
X23844135D01*
X23744135Y3004365D02*
Y3704365D01*
X23504135Y3004365D02*
Y3704365D01*
X23404135D02*
X23504135D01*
X23404135Y3004365D02*
Y3704365D01*
X21524135Y3004365D02*
X23404135D01*
X15377135D02*
X17257135D01*
X17697134D02*
Y3704365D01*
X17597134D02*
X17697134D01*
X17597134Y3004365D02*
Y3704365D01*
X17357135Y3004365D02*
Y3704365D01*
X17257135D02*
X17357135D01*
X17257135Y3004365D02*
Y3704365D01*
X17697134Y3004365D02*
X19577135D01*
X17357135Y1089365D02*
Y3004365D01*
X17597134D01*
Y1089365D02*
Y3004365D01*
X17357135D02*
X17597134D01*
X11210135Y1089365D02*
Y3004365D01*
X11450135Y1089365D02*
Y3004365D01*
X11210135D02*
X11450135D01*
X11210135D02*
X11450135D01*
Y3704365D02*
X11550135D01*
X9230135Y3004365D02*
X11110135D01*
X11450135D02*
Y3704365D01*
X11210135Y3004365D02*
Y3704365D01*
X11110135D02*
X11210135D01*
X11110135Y3004365D02*
Y3704365D01*
X11550135Y3004365D02*
X13430135D01*
X11550135D02*
Y3704365D01*
X23504135Y1089365D02*
X23744135D01*
X5063135Y3004365D02*
X5303135D01*
Y1089365D02*
Y3004365D01*
X5063135Y1089365D02*
Y3004365D01*
X5403135D02*
X7283135D01*
X5403135D02*
Y3704365D01*
X5303135D02*
X5403135D01*
X5303135Y3004365D02*
Y3704365D01*
X5063135Y3004365D02*
X5303135D01*
X5063135D02*
Y3704365D01*
X4963135D02*
X5063135D01*
X4963135Y3004365D02*
Y3704365D01*
X3083135Y3004365D02*
X4963135D01*
D13*
X11210135Y1089365D02*
X11450135D01*
X17357135D02*
X17597134D01*
X5063135D02*
X5303135D01*
D14*
X24070000Y1440000D02*
D03*
Y1177500D02*
D03*
X23185001Y1437500D02*
D03*
Y1175000D02*
D03*
X17920000Y1437500D02*
D03*
Y1175000D02*
D03*
X17035001Y1437500D02*
D03*
Y1175000D02*
D03*
X11770000Y1437500D02*
D03*
Y1175000D02*
D03*
X10890000D02*
D03*
Y1437500D02*
D03*
X5622500Y1172500D02*
D03*
X5625000Y1432500D02*
D03*
X4745000Y1175000D02*
D03*
Y1425000D02*
D03*
%TF.MD5,60e5d934065354782df4315c3b78da0a*%
M02*
