%TF.GenerationSoftware,Altium Limited,Altium Designer,24.6.1 (21)*%
G04 Layer_Color=16711935*
%FSLAX45Y45*%
%MOMM*%
%TF.SameCoordinates,104D0E94-22AC-47F8-8689-0ABA5F01EAEE*%
%TF.FilePolarity,Negative*%
%TF.FileFunction,Soldermask,Bot*%
%TF.Part,Single*%
G01*
G75*
%TA.AperFunction,ConnectorPad*%
%ADD11R,2.41300X5.08000*%
%TA.AperFunction,ViaPad*%
%ADD20C,1.70320*%
D11*
X10516850Y13012500D02*
D03*
X11393150D02*
D03*
X4416850Y13002499D02*
D03*
X5293150D02*
D03*
X11402500Y1290000D02*
D03*
X10526200D02*
D03*
X5302500Y1292500D02*
D03*
X4426200D02*
D03*
D20*
X5300000Y1172500D02*
D03*
X5307500Y1440000D02*
D03*
X4417500Y1180000D02*
D03*
X4420000Y1440000D02*
D03*
X11407500Y1175000D02*
D03*
Y1432500D02*
D03*
X10517500Y1167500D02*
D03*
X10522500Y1415000D02*
D03*
X11397500Y13155000D02*
D03*
Y12900000D02*
D03*
X10512500Y12907500D02*
D03*
Y13147501D02*
D03*
X5295000Y12887500D02*
D03*
X5297500Y13132500D02*
D03*
X4417500D02*
D03*
Y12895000D02*
D03*
%TF.MD5,6df934d8b76c0954c375c7dc0e7811c8*%
M02*
