%TF.GenerationSoftware,Altium Limited,Altium Designer,24.6.1 (21)*%
G04 Layer_Color=32896*
%FSLAX45Y45*%
%MOMM*%
%TF.SameCoordinates,67D5D49C-F10C-4C33-88A2-04FC769B4017*%
%TF.FilePolarity,Positive*%
%TF.FileFunction,Legend,Bot*%
%TF.Part,Single*%
G01*
G75*
%TA.AperFunction,NonConductor*%
%ADD17C,0.25000*%
%ADD18C,0.20000*%
%ADD19C,0.25400*%
D17*
X3810000Y11702000D02*
G03*
X3810000Y11702000I-12500J0D01*
G01*
X9814100D02*
G03*
X9814100Y11702000I-12500J0D01*
G01*
X9818900Y389776D02*
G03*
X9818900Y389776I-12500J0D01*
G01*
X3812500Y410000D02*
G03*
X3812500Y410000I-12500J0D01*
G01*
D18*
X3740000Y11587100D02*
Y11816900D01*
X3302600Y11379500D02*
X3532400D01*
X3095000Y11587100D02*
Y11816900D01*
X3302600Y12024500D02*
X3532400D01*
X9744100Y11587100D02*
Y11816900D01*
X9306700Y11379500D02*
X9536500D01*
X9099100Y11587100D02*
Y11816900D01*
X9306700Y12024500D02*
X9536500D01*
X9748900Y274876D02*
Y504676D01*
X9311500Y67276D02*
X9541300D01*
X9103900Y274876D02*
Y504676D01*
X9311500Y712276D02*
X9541300D01*
X3742500Y295100D02*
Y524900D01*
X3305100Y87500D02*
X3534900D01*
X3097500Y295100D02*
Y524900D01*
X3305100Y732500D02*
X3534900D01*
D19*
X3695733Y12280851D02*
X3746517D01*
X3721125D01*
Y12153892D01*
X3746517Y12128500D01*
X3771908D01*
X3797300Y12153892D01*
X3568774Y12128500D02*
Y12280851D01*
X3644949Y12204675D01*
X3543382D01*
X9700293Y12280851D02*
X9751077D01*
X9725685D01*
Y12153892D01*
X9751077Y12128500D01*
X9776468D01*
X9801860Y12153892D01*
X9649509Y12255459D02*
X9624117Y12280851D01*
X9573334D01*
X9547942Y12255459D01*
Y12230067D01*
X9573334Y12204675D01*
X9598726D01*
X9573334D01*
X9547942Y12179283D01*
Y12153892D01*
X9573334Y12128500D01*
X9624117D01*
X9649509Y12153892D01*
X9705373Y967691D02*
X9756157D01*
X9730765D01*
Y840732D01*
X9756157Y815340D01*
X9781548D01*
X9806940Y840732D01*
X9553022Y815340D02*
X9654589D01*
X9553022Y916907D01*
Y942299D01*
X9578414Y967691D01*
X9629197D01*
X9654589Y942299D01*
X3698273Y988011D02*
X3749057D01*
X3723665D01*
Y861052D01*
X3749057Y835660D01*
X3774448D01*
X3799840Y861052D01*
X3647489Y835660D02*
X3596706D01*
X3622097D01*
Y988011D01*
X3647489Y962619D01*
%TF.MD5,30eb20b9edf14cd5e57490b1201cdc86*%
M02*
