%TF.GenerationSoftware,Altium Limited,Altium Designer,24.6.1 (21)*%
G04 Layer_Color=8388736*
%FSLAX45Y45*%
%MOMM*%
%TF.SameCoordinates,ADE2F598-D5D4-4EA7-B13B-C0ACE0DB1145*%
%TF.FilePolarity,Negative*%
%TF.FileFunction,Soldermask,Top*%
%TF.Part,Single*%
G01*
G75*
%TA.AperFunction,ConnectorPad*%
%ADD10R,2.28600X5.08000*%
%ADD11R,2.41300X5.08000*%
%TA.AperFunction,ViaPad*%
%ADD20C,1.70320*%
D10*
X17175000Y1292660D02*
D03*
X23270000Y1290160D02*
D03*
X11075000D02*
D03*
X4955000Y1297660D02*
D03*
D11*
X16736850Y1292660D02*
D03*
X17613150D02*
D03*
X22831850Y1290160D02*
D03*
X23708150D02*
D03*
X10636850D02*
D03*
X11513150D02*
D03*
X4516850Y1297660D02*
D03*
X5393150D02*
D03*
D20*
X10632500Y1422500D02*
D03*
Y1150000D02*
D03*
X11515000Y1417500D02*
D03*
Y1162500D02*
D03*
X17612500Y1150000D02*
D03*
X23710001Y1412500D02*
D03*
Y1160000D02*
D03*
X22827499D02*
D03*
X22825000Y1417500D02*
D03*
X17617500Y1410000D02*
D03*
X16732500Y1162500D02*
D03*
Y1417500D02*
D03*
X5397500Y1432500D02*
D03*
X5400000Y1162500D02*
D03*
X4512500D02*
D03*
Y1440000D02*
D03*
%TF.MD5,8c06a6df2c5f43c9865501b3a2e30472*%
M02*
