%TF.GenerationSoftware,Altium Limited,Altium Designer,24.6.1 (21)*%
G04 Layer_Color=16711935*
%FSLAX45Y45*%
%MOMM*%
%TF.SameCoordinates,06162205-555A-4F1D-9E13-A282178C1B71*%
%TF.FilePolarity,Negative*%
%TF.FileFunction,Soldermask,Bot*%
%TF.Part,Single*%
G01*
G75*
%TA.AperFunction,ConnectorPad*%
%ADD11R,2.41300X5.08000*%
%TA.AperFunction,ViaPad*%
%ADD18C,2.20320*%
D11*
X11768150Y1302660D02*
D03*
X10891850D02*
D03*
X5622500D02*
D03*
X4746200D02*
D03*
X17915649D02*
D03*
X17039349D02*
D03*
X24063150D02*
D03*
X23186850D02*
D03*
D18*
X24070000Y1440000D02*
D03*
Y1177500D02*
D03*
X23185001Y1437500D02*
D03*
Y1175000D02*
D03*
X17920000Y1437500D02*
D03*
Y1175000D02*
D03*
X17035001Y1437500D02*
D03*
Y1175000D02*
D03*
X11770000Y1437500D02*
D03*
Y1175000D02*
D03*
X10890000D02*
D03*
Y1437500D02*
D03*
X5622500Y1172500D02*
D03*
X5625000Y1432500D02*
D03*
X4745000Y1175000D02*
D03*
Y1425000D02*
D03*
%TF.MD5,26721908c3b74dff620afb91ba47bfcf*%
M02*
