<svg xmlns="http://www.w3.org/2000/svg" width="140" height="41" viewBox="0 0 140 41"><g><g><g><path d="M0 4.118A4.118 4.118 0 0 1 4.118 0h131.764A4.118 4.118 0 0 1 140 4.118v32.764A4.118 4.118 0 0 1 135.882 41H4.118A4.118 4.118 0 0 1 0 36.882z"/></g><g><path fill="#fff" d="M125.52 9.814c.007-.328-.067-.61-.217-.814-.195-.34-.491-.493-.891-.493-.412 0-.663.15-.891.493-.19.205-.305.502-.332.814zm1.067.284c0 .198-.014.364-.04.5h-3.358c.014.49.175.863.485 1.121.326.281.651.347 1.1.347.497 0 .95-.066 1.357-.234l.176.766c-.478.204-1.04.305-1.69.305-.78 0-1.394-.226-1.839-.678-.446-.452-.667-1.058-.667-1.82 0-.747.206-1.405.621-1.866.434-.539 1.02-.795 1.761-.795.724 0 1.274.256 1.645.795.301.461.45.941.45 1.56zm-6.112 2.713h-1.12V10c0-.896-.355-1.34-1.014-1.34-.518 0-.873.257-1.068.772a1.363 1.363 0 0 0-.053.397v2.981h-1.118V5.58h1.118v2.987h.022c.352-.567.857-.815 1.512-.815.464 0 .847.15 1.151.45.38.373.57.928.57 1.662zm-7.158-4.131v2.408c0 .612.219.912.683.912h.468l.03.79c-.222.082-.498.123-.87.123-.442 0-.786-.132-1.035-.397-.25-.265-.374-.711-.374-1.337v-2.5h-.736v-.824h.736v-.909l1.097-.326v1.233h1.232v.827zM107 12.81h-1.101V10c0-.903-.338-1.34-1.016-1.34-.333 0-.601.12-.807.34a1.353 1.353 0 0 0-.311.87v2.94h-1.12V9.27c0-.435-.013-.907-.04-1.418h.982l.053.775h.03c.133-.24.33-.44.58-.627.305-.156.643-.25 1.016-.25.47 0 .86.15 1.171.449.387.367.563.915.563 1.643zm-7.162-2.482c0-.458-.1-.85-.3-1.177-.236-.395-.538-.593-1.004-.593-.449 0-.79.197-1.027.593-.201.327-.3.725-.3 1.196 0 .458.1.85.3 1.177.243.395.58.593 1.016.593.427 0 .764-.201 1.005-.604.206-.333.31-.728.31-1.185zm1.162-.036c0 .762-.223 1.386-.665 1.877-.463.503-1.077.754-1.845.754-.737 0-1.326-.24-1.766-.724-.438-.483-.657-1.091-.657-1.825 0-.768.226-1.374.679-1.886.453-.488 1.061-.734 1.829-.734.738 0 1.333.246 1.781.723.428.469.644 1.074.644 1.815zm-10.734.429v-.827c0-.143-.011-.258-.03-.347-.061-.26-.236-.494-.406-.667a1.11 1.11 0 0 0-.749-.27c-.417 0-.744.163-.985.49-.238.327-.358.744-.358 1.254 0 .49.114.887.344 1.193.242.327.57.453.978.453.367 0 .661-.1.884-.372.216-.252.321-.554.321-.907zm1.16 2.09zm-.993 0L90.38 12h-.03c-.35.62-.859.923-1.618.923a1.904 1.904 0 0 1-1.512-.703c-.4-.469-.601-1.078-.601-1.825 0-.803.217-1.452.653-1.948.422-.447.939-.695 1.554-.695.676 0 1.174.248 1.419.673h.02V5.58h1.12v5.896c0 .523.014.926.04 1.334zm-6.53-1.703v-.765c-1.235-.021-1.851.312-1.851 1 0 .257.07.451.214.58a.79.79 0 0 0 .547.194c.246 0 .476-.117.685-.23a.937.937 0 0 0 .406-.78zm1.163 1.703H84.06L84 12.24h-.053c-.345.455-.835.683-1.471.683-.476 0-.86-.15-1.15-.448a1.391 1.391 0 0 1-.394-1.01c0-.606.257-1.068.773-1.386.515-.32 1.238-.477 2.17-.47v-.092c0-.653-.348-.98-1.045-.98-.497 0-.934.124-1.312.368l-.228-.724c.468-.285 1.046-.427 1.71-.427 1.333 0 2 .683 2 2.05v1.825c0 .496 0 .89.066 1.182zm-6.579-2.483c0-.458-.1-.85-.3-1.177-.187-.395-.57-.593-1.003-.593-.45 0-.793.197-1.026.593-.158.327-.3.725-.3 1.196 0 .458.142.85.3 1.177.242.395.58.593 1.015.593.427 0 .762-.201 1.003-.604.209-.333.31-.728.31-1.185zm1.162-.036c0 .762-.221 1.386-.649 1.877-.478.503-1.093.754-1.859.754-.74 0-1.328-.24-1.766-.724-.439-.483-.658-1.091-.658-1.825 0-.768.226-1.374.679-1.886.453-.488 1.062-.734 1.827-.734.777 0 1.333.246 1.777.723.434.469.65 1.074.65 1.815zm-6.59 2.519H71.94V5.58h1.118zm-3.059 0h-1.147V10c0-.903-.338-1.34-1.015-1.34-.332 0-.6.12-.838.34a1.52 1.52 0 0 0-.28.87v2.94H65.6V9.27c0-.435-.014-.907-.041-1.418h.984l.053.775h.03c.13-.24.374-.44.58-.627.304-.156.643-.25 1.015-.25.47 0 .86.15 1.171.449.387.367.608.915.608 1.643zm-5.83-4.956zm-1.575 4.956H61.57l-.653-2.152a15.88 15.88 0 0 1-.405-1.6h-.02a11.575 11.575 0 0 1-.406 1.6l-.692 2.153h-1.038l-1.48-4.957H58l.596 2.355c.137.558.25 1.089.342 1.591H59c0-.414.179-.942.373-1.58l.714-2.366H61l.684 2.316c.166.564.316 1.108.404 1.632h.03c.077-.51.191-1.054.343-1.632l.61-2.316h1.098zm-7.977-2.483c0-.458-.1-.85-.3-1.177-.234-.395-.569-.593-1.004-.593-.449 0-.79.197-1.026.593-.2.327-.288.725-.288 1.196 0 .458.088.85.288 1.177.243.395.58.593 1.016.593.427 0 .763-.201 1.004-.604.207-.333.31-.728.31-1.185zm1.161-.036c0 .762-.22 1.386-.663 1.877-.463.503-1.116.754-1.844.754-.739 0-1.328-.24-1.767-.724-.438-.483-.657-1.091-.657-1.825 0-.768.226-1.374.679-1.886.473-.488 1.061-.734 1.828-.734.74 0 1.333.246 1.783.723.426.469.642 1.074.642 1.815zm-7.437-1.05c0-.803-.216-1.419-.647-1.847-.432-.395-1.063-.642-1.892-.642-.352 0-.652.023-.902.071V12h.757c.857 0 1.517-.24 1.983-.709.466-.468.7-1.152.7-2.05zm1.18-.031c0 1.237-.377 2.169-1.13 2.789-.697.583-1.688.872-2.973.872-.636 0-1.18-.028-1.637-.082V6a16.931 16.931 0 0 1 1.928-.115c1.223 0 2.145.262 2.766.786.697.592 1.046 1.438 1.046 2.54zm75.907 16.497c.015-.708-.133-1.239-.429-1.708-.406-.638-1-.95-1.827-.95-.745 0-1.35.304-1.813.95-.36.448-.604 1-.673 1.707h4.742zm2.172.582c0 .402-.027.71-.084 1.017h-6.83c.026.996.313 1.759.99 2.284.576.47 1.323.705 2.235.705 1.011 0 1.934-.158 2.763-.477l.325 1.556c-.937.417-2.082.625-3.403.625-1.597 0-2.837-.461-3.745-1.381-.905-.92-1.36-2.156-1.36-3.706 0-1.52.422-2.788 1.267-3.799.885-1.114 2.08-1.618 3.583-1.618 1.477 0 2.595.504 3.355 1.618.601.886.904 1.886.904 3.176zm-10.184-2.596zm-.718-.063c-.8 0-1.42.298-1.856.894-.379.526-.57 1.19-.57 1.993v5.294H112v-6.913c0-1.163 0-2.221-.066-3.176h1.983l.083 1.93h.064c.24-.653.62-1.196 1.138-1.598a2.781 2.781 0 0 1 1.646-.54c.21 0 .4.015.568.04v2.139a4.025 4.025 0 0 0-.717-.063zm-9.045 3.126c0-.931-.202-1.757-.654-2.395-.435-.805-1.118-1.207-2-1.207-.917 0-1.612.403-2.09 1.207-.408.638-.611 1.478-.611 2.436 0 .931.203 1.729.611 2.394.492.808 1.18 1.207 2.09 1.207.848 0 1.53-.399 2-1.228.442-.679.654-1.485.654-2.414zm2.346-.073c0 1.55-.435 2.824-1.334 3.82-.943 1.025-2.195 1.496-3.756 1.496-1.503 0-2.7-.45-3.593-1.433-.893-.982-1.317-2.222-1.317-3.716 0-1.563.437-2.851 1.359-3.851.919-1 2.16-1.484 3.72-1.484 1.504 0 2.715.484 3.627 1.484.874.944 1.294 2.175 1.294 3.684zm-11.308-3.28h-2.51v4.899c0 1.246.442 1.869 1.328 1.869.407 0 .745-.036 1.011-.104l.064 1.702c-.449.165-1.04.23-1.77.23-.9 0-1.603-.253-2.11-.792-.505-.54-.76-1.446-.76-2.72v-5.086H92.45v-1.683h1.495v-1.847l2.237-.664v2.511h2.51zm-7.529 4.484c0 1.19-.42 2.112-1.262 2.906C89 31.611 87.685 32 86 32c-1.5 0-2.726-.271-3.654-.852l.527-1.87a6.301 6.301 0 0 0 3.291.895c.836 0 1.526-.173 2.006-.572.477-.381.715-.892.715-1.53 0-.567-.197-1.071-.591-1.433-.392-.388-1.046-.75-1.96-1.083-2.489-.913-3.732-2.252-3.732-4.011 0-1.15.398-2.094 1.308-2.828.87-.716 2.03-1.102 3.48-1.102 1.293 0 2.367.222 3.225.665L90 20.106c-.755-.43-1.66-.643-2.674-.643-.802 0-1.428.194-1.876.537-.378.39-.569.812-.569 1.31 0 .554.217 1.011.653 1.37.378.32 1.068.693 2.067 1.081 1.223.484 2.121 1.051 2.7 1.702.575.647.862 1.457.862 2.424zm-15.5-1.163c0-.982-.224-1.791-.663-2.43-.504-.664-1.163-.996-2-.996a2.39 2.39 0 0 0-1.522.55c-.478.369-.756.848-.896 1.444a2.96 2.96 0 0 0-.105.707v1.658c0 .734.228 1.342.684 1.86a2.37 2.37 0 0 0 1.782.758c.859 0 1.526-.326 2.003-.976.479-.651.718-1.509.718-2.575zM78 26.643c0 1.716-.488 3.072-1.43 4.067-.843.888-1.89 1.29-3.142 1.29-1.35 0-2.32-.438-2.91-1.392h-.041v5.315H68.2V25c0-1-.029-2.143-.085-3.277h2.003l.127 1.599h.042c.713-1.206 1.911-1.807 3.46-1.807 1.253 0 2.253.485 3.026 1.41.806.943 1.227 2.182 1.227 3.718zm-14.124.082c0-.982-.225-1.791-.675-2.43a2.404 2.404 0 0 0-1.982-.996c-.562 0-1.072.186-1.529.55a2.545 2.545 0 0 0-.896 1.444 2.904 2.904 0 0 0-.105.707v1.658c0 .734.228 1.342.685 1.86a2.37 2.37 0 0 0 1.782.758c.844 0 1.525-.326 2.002-.976.479-.651.718-1.509.718-2.575zm2.32-.082c0 1.716-.47 3.072-1.413 4.067-.844.888-1.892 1.29-3.143 1.29-1.35 0-2.319-.438-2.91-1.392h-.042v5.315h-2.277V25c0-1-.029-2.143-.085-3.277h2.003l.127 1.599h.043c.759-1.206 1.911-1.807 3.501-1.807 1.166 0 2.175.485 3 1.41.792.943 1.196 2.182 1.196 3.718zM50.275 26l-1.202-3.677c-.126-.323-.365-1.251-.716-2.636h-.043c-.14.596-.366 1.475-.675 2.636L46.459 26zm4.155 5.812H52l-1.325-4.11h-4.617l-1.266 4.11H42.43L47 17.819h2.832z"/></g><g><path fill="#fff" d="M24.214 10.683C25.15 9.549 25.79 8 25.612 6.44c-1.353.057-3.046.908-4.02 2.017-.863.978-1.592 2.543-1.434 4.086 1.52.111 3.081-.743 4.056-1.86zm4.215 11.732c-.031-3.344 2.823-4.971 2.954-5.047-1.616-2.286-4.122-2.598-5.003-2.624C24.275 14.53 22.234 16 21.162 16c-1.094 0-2.744-1.235-4.524-1.198-2.29.033-4.432 1.319-5.638 3.316-2.393 4.07-.585 10.053 1.738 13.343 1.162 1.612 2.52 3.412 4.262 3.348 1.773-.07 2.423-1.075 4.521-1.075 2.079 0 2.69 1.075 4.479 1.035 1.889-.03 3.063-1.62 4.185-3.245 1.342-1.848 1.882-3.666 1.903-3.76-.088-.015-3.623-1.34-3.659-5.349z"/></g></g></g></svg>