<svg xmlns="http://www.w3.org/2000/svg" width="140" height="41" viewBox="0 0 140 41"><g><g><g><g><path d="M0 3.294A3.294 3.294 0 0 1 3.294 0h133.412A3.294 3.294 0 0 1 140 3.294v34.412A3.294 3.294 0 0 1 136.706 41H3.294A3.294 3.294 0 0 1 0 37.706z"/></g><g><g><path fill="#fffffe" d="M99.372 17.918h1.904V30.69h-1.904zm10.098 0h1.905V30.69h-1.905zm-25.53 0h1.903V30.69H83.94zm4.79 8.568l3.872-1.622c-.241-.505-.81-.926-1.602-.926-1.249 0-2.437 1.292-2.27 2.548zm5.792-1.675l.301.707L89 27.93c.371.646.93 1.313 2.146 1.313 1.082 0 1.731-.59 2.118-1.242l1.495 1c-.67.945-1.759 1.948-3.622 1.948-2.192 0-4.244-1.62-4.244-4.349 0-2.599 1.84-4.327 4.033-4.327 1.73 0 3.074 1.155 3.596 2.539zm-18.43 1.827c0 1.6 1.154 2.609 2.392 2.609 1.167 0 2.335-.933 2.335-2.626 0-1.621-1.17-2.621-2.31-2.621-1.219 0-2.416 1-2.416 2.638zm4.581-3.362v-.734h1.812v7.787c0 3.06-1.76 4.518-4.072 4.518-2.112 0-3.299-1.303-3.888-2.551l1.662-.697c.23.559.892 1.543 2.212 1.543 1.368 0 2.273-.896 2.273-2.39v-.855c-.483.563-1.139 1.053-2.37 1.053-1.994 0-4.112-1.73-4.112-4.339 0-2.289 1.81-4.33 4.151-4.33 1.012 0 1.774.394 2.332.995zM69 24c-1.392 0-2.468 1.1-2.468 2.602 0 1.534 1.09 2.642 2.468 2.642 1.257 0 2.432-1.038 2.432-2.63C71.432 25 70.252 24 69 24zm4.32 2.626c0 2.504-1.94 4.318-4.32 4.318-2.605 0-4.365-2.02-4.365-4.369 0-2.314 1.814-4.297 4.365-4.297 2.063 0 4.32 1.478 4.32 4.348zM57 26.602c0 1.534 1.066 2.642 2.445 2.642 1.256 0 2.431-1.038 2.431-2.63C61.876 25 60.696 24 59.451 24 58.05 24 57 25.1 57 26.602zm6.765.024c0 2.504-1.94 4.318-4.31 4.318-2.616 0-4.375-2.02-4.375-4.369 0-2.314 1.814-4.297 4.346-4.297 2.081 0 4.339 1.478 4.339 4.348zm-9.585-3.02s.112.446.112 1.217c0 3.656-2.636 6.177-6.237 6.177-4.055 0-6.875-3.384-6.875-6.806 0-3.492 2.956-6.724 6.82-6.724 3 0 4.605 1.835 4.605 1.835l-1.282 1.331S50.099 19.309 48 19.309c-2.668 0-4.814 2.14-4.814 4.918 0 2.852 2.252 4.885 4.814 4.885 2 0 4.17-1.112 4.387-3.67H48v-1.835h6.18z"/></g><g><path fill="#fffffe" d="M123.353 34.84l5.513-12.575h2.08l-5.514 12.576zM99.37 17.91H104c2.21 0 4 1.832 4 4.09 0 2.218-1.79 4-4 4h-4.63zm1.904 1.909v4.321H104c1.159 0 2.132-.975 2.132-2.14 0-1.205-.973-2.181-2.132-2.181z"/></g><g><path fill="#fffffe" d="M76.489 6.27h.787l2.528 4.341V6.27h.787v5.963h-.787l-2.528-4.344v4.344h-.787zm-1.936 2.989c0-1.259-.958-2.16-2.165-2.175C71.18 7.1 70.222 8 70.222 9.26c0 1.251 1.006 2.147 2.166 2.16 1.16-.013 2.165-.909 2.165-2.16zm.91-.015c0 1.502-1.241 2.966-3.075 2.989-1.834-.023-3.077-1.487-3.077-2.989 0-1.545 1.342-2.974 3.077-2.974 1.733-.001 3.075 1.43 3.075 2.974zM64.73 7.161h-1.57V6.27h4.1v.89h-1.572v5.073h-.958zM49.828 6.27h3.076v.89H50.63v1.645h2v.891h-2v1.647h2.274v.89h-3.076zm5.673.89H53.93v-.89H58v.89h-1.541v5.073h-.958zm5.607-.89h1.025v5.963h-1.025zM48.803 9.522c0 1.618-1.237 2.71-2.927 2.71-1.876 0-3.226-1.474-3.226-2.988C42.65 7.7 44 6.27 45.83 6.27c1.408 0 2.17.812 2.17.812l-.59.589s-.575-.588-1.549-.588c-1.262 0-2.27.917-2.27 2.176 0 1.261 1.056 2.16 2.267 2.16.947 0 1.949-.485 2.05-1.623h-2.054V9h2.896s.053.18.053.522zm70.365 21.16V29.65c-.44.524-.975.928-1.655 1.114-1.208.33-2.679.235-3.576-.765-.574-.62-.757-1.638-.65-2.464.199-1.536 1.453-2.46 2.918-2.609.939-.094 1.967.073 2.917.34-.207-2.081-3.371-2.529-4.48-.586l-1.533-1.03c2.268-3.416 8.261-2.301 7.963 2.437v4.593zm-1.585-4.073c-3.273-.493-2.724 3.092-.523 2.491 1.043-.284 1.864-1.048 2.107-2.1-.532-.183-1.022-.323-1.584-.39zM126 32l-4.202-9.737h2.08L126.81 29H126z"/></g></g></g><g><g><path fill="#00c9ff" d="M9.651 8.34l12.044 12.05L9.709 32.542c-.35-.221-.537-.704-.54-1.327L9.06 9.644c-.003-.644.245-1.1.591-1.304z"/></g><g><path fill="#f4324a" d="M10.7 32.556c.102-.038.208-.087.3-.147l14.666-8.035-3.472-3.474z"/></g><g><path fill="#00f075" d="M11 8.36a1.244 1.244 0 0 0-.49-.16l11.682 11.688 3.473-3.522z"/></g><g><path fill="#ffcb00" d="M26.312 24l-3.622-3.61 3.619-3.67 4.984 2.724c1.227.67.6 1.556 0 1.838z"/></g></g></g></g></svg>