<svg xmlns="http://www.w3.org/2000/svg" width="40" height="40" viewBox="0 0 40 40"><defs><clipPath id="qohqa"><path fill="#fff" d="M20 40c11 0 20-9 20-20S31 0 20 0 0 9 0 20s9 20 20 20z"/></clipPath></defs><g><g><path fill="#0c122a" d="M20 40c11 0 20-9 20-20S31 0 20 0 0 9 0 20s9 20 20 20z"/><path fill="none" stroke="#3d84b5" stroke-miterlimit="20" stroke-width="4" d="M20 40c11 0 20-9 20-20S31 0 20 0 0 9 0 20s9 20 20 20z" clip-path="url(&quot;#qohqa&quot;)"/></g><g><g><path fill="#3d84b5" d="M15 16h10v1.143H15z"/></g><g><path fill="#3d84b5" d="M15 19.43h10v1.143H15z"/></g><g><path fill="#3d84b5" d="M15 22.86h10V24H15z"/></g></g></g></svg>