<?xml version="1.0" encoding="UTF-8"?>
<svg width="20px" height="14px" viewBox="0 0 20 14" version="1.1" xmlns="http://www.w3.org/2000/svg" xmlns:xlink="http://www.w3.org/1999/xlink">
    <title>noun-ringing-phone-3356586</title>
    <g id="Symbols" stroke="none" stroke-width="1" fill="none" fill-rule="evenodd">
        <g id="FOOTER" transform="translate(-750.000000, -386.000000)" fill="#3D84B5" fill-rule="nonzero">
            <g id="noun-ringing-phone-3356586" transform="translate(750.000000, 386.000000)">
                <path d="M13.3852404,0 L6.61475965,0 C6.05482155,0 5.59918754,0.448647619 5.59918754,1 L5.59918754,13 C5.59918754,13.5513524 6.05482155,14 6.61475965,14 L13.3852404,14 C13.9451785,14 14.4008125,13.5513524 14.4008125,13 L14.4008125,1 C14.4008125,0.448647619 13.9451785,0 13.3852404,0 Z M13.7237644,13 C13.7237644,13.1833333 13.5714286,13.3333333 13.3852404,13.3333333 L6.61475965,13.3333333 C6.42796789,13.3333333 6.27623561,13.1833333 6.27623561,13 L6.27623561,12.0553524 L13.7237644,12.0553524 L13.7237644,13 Z M13.7237644,11.3886857 L6.27623561,11.3886857 L6.27623561,1.00011429 C6.27623561,0.816186667 6.42796789,0.666780952 6.61475965,0.666780952 L13.3852404,0.666780952 C13.5714286,0.666780952 13.7237644,0.816186667 13.7237644,1.00011429 L13.7237644,11.3886857 Z" id="Shape"></path>
                <path d="M10,13.2220952 C10.6546861,13.2220952 10.6546861,12.2220952 10,12.2220952 C9.34531386,12.2220952 9.34531386,13.2220952 10,13.2220952 Z" id="Path"></path>
                <path d="M15.1529161,4.17409524 C14.8042673,4.15147619 14.8062327,4.6848 15.1529161,4.70742857 C17.004662,4.82811429 17.004662,7.83942857 15.1529161,7.96011429 C14.8062327,7.98273333 14.8042673,8.51607619 15.1529161,8.49344762 C17.7000097,8.32752381 17.7000097,4.33954286 15.1529161,4.17420952 L15.1529161,4.17409524 Z" id="Path"></path>
                <path d="M15.8299642,3.24533333 C15.4813154,3.22271429 15.4832808,3.7560381 15.8299642,3.77866667 C18.761505,3.96929143 18.761505,8.6967619 15.8299642,8.8872381 C15.4832808,8.90985714 15.4813154,9.4432 15.8299642,9.42057143 C19.4556534,9.18515429 19.4556534,3.48114286 15.8299642,3.24533333 Z" id="Path"></path>
                <path d="M16.5070123,2.12609524 C16.1583635,2.10347619 16.1603289,2.6368 16.5070123,2.65942857 C20.4683238,2.9193981 20.4683238,9.74742857 16.5070123,10.007619 C16.1603289,10.0302381 16.1583635,10.563581 16.5070123,10.5409524 C21.1643292,10.2348495 21.1643292,2.432 16.5070123,2.12609524 Z" id="Path"></path>
                <path d="M4.84708386,4.70742857 C5.19376729,4.68480952 5.19573266,4.15146667 4.84708386,4.17409524 C2.29999033,4.34016762 2.29999033,8.3272381 4.84708386,8.49333333 C5.19573266,8.51595238 5.19376729,7.98262857 4.84708386,7.96 C2.99533804,7.83931429 2.99533804,4.82742857 4.84708386,4.70731429 L4.84708386,4.70742857 Z" id="Path"></path>
                <path d="M4.17003579,8.888 C1.23849502,8.69737524 1.23849502,3.96990476 4.17003579,3.77942857 C4.51671922,3.75680952 4.51868459,3.22346667 4.17003579,3.24609524 C0.544501402,3.48210667 0.544501402,9.18628571 4.17003579,9.42133333 C4.51928813,9.44410133 4.51656833,8.91078095 4.17003579,8.888 Z" id="Path"></path>
                <path d="M3.49298772,10.0072381 C-0.468323822,9.74726857 -0.468323822,2.9192381 3.49298772,2.65904762 C3.83967115,2.63642857 3.84163652,2.10308571 3.49298772,2.12571429 C-1.16432924,2.43166476 -1.16432924,10.2350476 3.49298772,10.5405714 C3.84224006,10.5633394 3.83952026,10.030019 3.49298772,10.0072381 Z" id="Path"></path>
            </g>
        </g>
    </g>
</svg>