<?xml version="1.0" encoding="UTF-8"?>
<svg xmlns="http://www.w3.org/2000/svg" width="20" height="20" viewBox="0 0 20 20">
  <g>
    <g>
      <g>
        <path fill="#3d84b5" d="M15.187 4.437a.265.265 0 0 0 0 .376.266.266 0 0 0 .454-.188c0-.073-.03-.14-.078-.188-.048-.048-.115-.078-.376 0zm-2.695 3.072A3.465 3.465 0 0 1 13.525 10c0 1-.395 1.853-1.034 2.491A3.465 3.465 0 0 1 10 13.525c-1 0-1.853-.395-2.491-1.034A3.464 3.464 0 0 1 6.475 10c0-1 .395-1.853 1.033-2.491A3.465 3.465 0 0 1 10 6.475c1 0 1.853.395 2.492 1.034zm-5.745-.762A4.586 4.586 0 0 0 5.4 10c0 1.27.515 2.42 1.347 3.253A4.587 4.587 0 0 0 10 14.6c1.27 0 2.42-.515 3.253-1.347A4.586 4.586 0 0 0 14.6 10c0-1.27-.515-2.42-1.347-3.253A4.587 4.587 0 0 0 10 5.4c-1.27 0-2.42.515-3.253 1.347zm10.378-3.872a4.718 4.718 0 0 1 1.4 3.375v7.5c0 1.316-.525 2.51-1.4 3.375a4.717 4.717 0 0 1-3.375 1.4h-7.5a4.717 4.717 0 0 1-3.375-1.4 4.718 4.718 0 0 1-1.4-3.375v-7.5c0-1.316.525-2.51 1.4-3.375a4.717 4.717 0 0 1 3.375-1.4h7.5c1.317 0 2.51.525 3.375 1.4zM6.25.4a5.832 5.832 0 0 0-4.136 1.714A5.832 5.832 0 0 0 .4 6.25v7.5c0 1.615.655 3.078 1.714 4.136A5.832 5.832 0 0 0 6.25 19.6h7.5a5.832 5.832 0 0 0 4.136-1.714A5.832 5.832 0 0 0 19.6 13.75v-7.5a5.832 5.832 0 0 0-1.714-4.136A5.832 5.832 0 0 0 13.75.4z"></path>
      </g>
    </g>
  </g>
</svg>
