<?xml version="1.0" encoding="UTF-8"?>
<svg xmlns="http://www.w3.org/2000/svg" width="22" height="15" viewBox="0 0 22 15">
  <g>
    <g>
      <path fill="#3d84b5" d="M15.309 7.646L8.709 11h-.166c-.05-.055-.081-.11-.081-.167V4.167c0-.059.03-.112.081-.167h.166l6.6 3.353a.167.167 0 0 1 .092.148c0 .063-.036.12-.092.149zM3.723 0C2.736 0 1.79.386 1.09 1.074A3.638 3.638 0 0 0 0 3.667v7.666c0 .973.392 1.906 1.09 2.593A3.752 3.752 0 0 0 3.723 15h14.554c.987 0 1.934-.386 2.633-1.074A3.638 3.638 0 0 0 22 11.333V3.667c0-.973-.392-1.906-1.09-2.593A3.752 3.752 0 0 0 18.277 0z"></path>
    </g>
  </g>
</svg>
