<?xml version="1.0" encoding="UTF-8"?>
<svg xmlns="http://www.w3.org/2000/svg" width="20" height="15" viewBox="0 0 20 15">
  <g>
    <g>
      <g>
        <path fill="#3d84b5" d="M19.123 13.55C18 12.49 14.67 9.324 12.513 7.47 14.677 5.5 18 2.448 19.12 1.436c.022.075.047.149.047.23v11.667c0 .077-.025.147-.044.218zm-.79.617H1.667c-.067 0-.126-.023-.188-.038C2.629 13 6 9.848 8.109 8c.277.285.53.514.728.693.344.307.746.474 1.163.474.417 0 .82-.167 1.162-.474.2-.179.452-.408.729-.693 2.109 1.848 5.48 5 6.63 6.129-.062.015-.121.038-.188.038zm-17.5-.834V1.667c0-.082.025-.156.047-.23C2 2.446 5.323 5.5 7.487 7.47 5.33 9.323 2 12.489.877 13.55c-.02-.07-.044-.14-.044-.217zm.834-12.5h16.666c.062 0 .116.023.173.035-1.442 1.321-6.227 5.698-7.901 7.206-.131.119-.343.26-.605.26-.262 0-.474-.141-.605-.26A2259.137 2259.137 0 0 1 1.493.868c.058-.012.112-.035.174-.035zM18.333 0H1.667C.747 0 0 .748 0 1.667v11.667C0 14.252.747 15 1.667 15h16.666c.92 0 1.667-.748 1.667-1.667V1.667C20 .747 19.253 0 18.333 0z"></path>
      </g>
    </g>
  </g>
</svg>
