<?xml version="1.0" encoding="UTF-8"?>
<svg width="158px" height="15px" viewBox="0 0 158 15" version="1.1" xmlns="http://www.w3.org/2000/svg" xmlns:xlink="http://www.w3.org/1999/xlink">
    <title>Tsoft-premium</title>
    <defs>
        <linearGradient x1="11.2516262%" y1="51.3790859%" x2="88.7483738%" y2="48.6209141%" id="linearGradient-1">
            <stop stop-color="#F803FE" offset="0%"></stop>
            <stop stop-color="#0ECBDE" offset="100%"></stop>
        </linearGradient>
        <path d="M78.4898934,14.7560976 L78.4898934,0.528455285 L83.5114634,0.528455285 C84.4806163,0.528455285 85.3395997,0.72498518 86.0884136,1.11804497 C86.8372276,1.51110476 87.4220831,2.05723874 87.8429802,2.7564469 C88.2638773,3.45565506 88.4743258,4.2618352 88.4743258,5.1749873 C88.4743258,6.07882368 88.2754602,6.88219851 87.8777288,7.58511179 C87.4799974,8.28802507 86.9322706,8.83939914 86.2345482,9.23923399 C85.5368258,9.63906885 84.7333238,9.83898628 83.8240422,9.83898628 L80.8464517,9.83898628 L80.8464517,14.7560976 L78.4898934,14.7560976 Z M80.8464517,7.66958841 L83.7805668,7.66958841 C84.4571332,7.66958841 85.0104664,7.43801872 85.4405664,6.97487932 C85.8706663,6.51173992 86.0857163,5.91177591 86.0857163,5.1749873 C86.0857163,4.43142361 85.8416827,3.82928946 85.3536155,3.36858486 C84.8655484,2.90788025 84.2370059,2.67752795 83.467988,2.67752795 L80.8464517,2.67752795 L80.8464517,7.66958841 Z M91.6209228,9.35308689 C91.6209228,8.25552591 91.8332225,7.35343623 92.2578219,6.64681784 C92.6824213,5.94019944 93.2274508,5.41454946 93.8929104,5.06986789 C94.55837,4.72518631 95.2566741,4.55284553 95.9878229,4.55284553 L95.9878229,6.72827744 C95.3745126,6.72827744 94.7936767,6.81291286 94.2453152,6.98218369 C93.6969537,7.15145452 93.2511454,7.42653286 92.9078906,7.8074187 C92.5646357,8.18830454 92.3930083,8.69198848 92.3930083,9.31847053 L91.6209228,9.35308689 Z M90.1262568,14.7560976 L90.1262568,4.59349593 L92.3930083,4.59349593 L92.3930083,14.7560976 L90.1262568,14.7560976 Z M102.028163,15 C101.033835,15 100.153696,14.7730352 99.3877455,14.3191057 C98.6217953,13.8651762 98.0207026,13.2384824 97.5844675,12.4390244 C97.1482323,11.6395664 96.9301147,10.7181572 96.9301147,9.67479675 C96.9301147,8.63143631 97.1520933,7.7100271 97.5960503,6.91056911 C98.0400074,6.11111111 98.6503558,5.48441734 99.4270955,5.0304878 C100.203835,4.57655827 101.095187,4.3495935 102.101151,4.3495935 C103.01403,4.3495935 103.834721,4.58333333 104.563225,5.05081301 C105.291729,5.51829268 105.868387,6.19103574 106.293198,7.06904217 C106.718009,7.94704861 106.930414,8.99898374 106.930414,10.2248476 L98.9566407,10.2248476 L99.2638247,9.9406123 C99.2638247,10.5649771 99.3976888,11.1047066 99.665417,11.5598006 C99.9331452,12.0148946 100.291632,12.3627519 100.740878,12.6033727 C101.190124,12.8439935 101.68713,12.9643039 102.231895,12.9643039 C102.852187,12.9643039 103.36617,12.824621 103.773845,12.5452553 C104.181519,12.2658897 104.497377,11.9038999 104.721418,11.4592861 L106.726683,12.3078633 C106.450175,12.8579141 106.090894,13.3357152 105.648841,13.7412665 C105.206788,14.1468178 104.68392,14.4579946 104.080235,14.6747967 C103.476551,14.8915989 102.792527,15 102.028163,15 Z M99.394251,8.75920986 L99.0759601,8.48069106 L104.799166,8.48069106 L104.495156,8.76492632 C104.495156,8.21191142 104.375255,7.75422383 104.135452,7.39186357 C103.89565,7.0295033 103.589735,6.75654217 103.217708,6.57298018 C102.845681,6.38941819 102.454138,6.2976372 102.043078,6.2976372 C101.635827,6.2976372 101.228364,6.38941819 100.820689,6.57298018 C100.413014,6.75654217 100.073356,7.02855056 99.8017141,7.38900534 C99.530072,7.74946011 99.394251,8.20619495 99.394251,8.75920986 Z M108.683884,14.7560976 L108.683884,4.59349593 L110.817036,4.59349593 L110.912873,5.96068343 C111.23,5.43434536 111.631328,5.03424585 112.116856,4.76038491 C112.602385,4.48652397 113.156458,4.3495935 113.779077,4.3495935 C114.595484,4.3495935 115.286014,4.53103828 115.850665,4.89392785 C116.415317,5.25681741 116.826271,5.8147019 117.083527,6.5675813 C117.385422,5.84942412 117.807641,5.30022019 118.350185,4.91996951 C118.892728,4.53971883 119.530421,4.3495935 120.263262,4.3495935 C121.431915,4.3495935 122.335326,4.72608613 122.973495,5.47907139 C123.592325,6.20923892 123.907435,7.31711803 123.918957,8.80270873 L123.919148,14.7560976 L121.652572,14.7560976 L121.652572,9.55284553 C121.652572,8.74280149 121.566097,8.11785442 121.393147,7.67800432 C121.220197,7.23815422 120.985472,6.92920054 120.688972,6.75114329 C120.392472,6.57308604 120.046096,6.48119919 119.649846,6.47548272 C118.942392,6.46383808 118.396357,6.71610349 118.011743,7.23227896 C117.627128,7.74845444 117.434821,8.48894817 117.434821,9.45376016 L117.434821,14.7560976 L115.168387,14.7560976 L115.168387,9.55284553 C115.168387,8.74280149 115.081912,8.11785442 114.908962,7.67800432 C114.736012,7.23815422 114.501235,6.92920054 114.204629,6.75114329 C113.908022,6.57308604 113.5617,6.48119919 113.165661,6.47548272 C112.458207,6.46383808 111.912173,6.71610349 111.527558,7.23227896 C111.142943,7.74845444 110.950636,8.48894817 110.950636,9.45376016 L110.950636,14.7560976 L108.683884,14.7560976 Z M126.364399,14.7560976 L126.364399,4.59349593 L128.618774,4.59349593 L128.618774,14.7560976 L126.364399,14.7560976 Z M127.501742,2.66260163 C127.136167,2.66260163 126.821367,2.5304878 126.557341,2.26626016 C126.293315,2.00203252 126.161302,1.68699187 126.161302,1.32113821 C126.161302,0.955284553 126.293315,0.643631436 126.557341,0.386178862 C126.821367,0.128726287 127.136167,2.84217094e-14 127.501742,2.84217094e-14 C127.867316,2.84217094e-14 128.182116,0.128726287 128.446142,0.386178862 C128.710168,0.643631436 128.842181,0.955284553 128.842181,1.32113821 C128.842181,1.68699187 128.710168,2.00203252 128.446142,2.26626016 C128.182116,2.5304878 127.867316,2.66260163 127.501742,2.66260163 Z M138.109544,14.7560976 L137.975944,12.8861789 L137.975944,4.59349593 L140.242378,4.59349593 L140.242378,14.7560976 L138.109544,14.7560976 Z M131.086518,9.79674797 L131.086518,4.59349593 L133.352952,4.59349593 L133.352952,9.79674797 L131.086518,9.79674797 Z M133.352952,9.79674797 C133.352952,10.6008638 133.447096,11.2243288 133.635383,11.667143 C133.823671,12.1099572 134.085423,12.420393 134.420638,12.5984502 C134.755854,12.7765075 135.137031,12.8683943 135.564169,12.8741108 C136.333398,12.880039 136.927668,12.6249153 137.346979,12.1087398 C137.766289,11.5925644 137.975944,10.8549289 137.975944,9.89583333 L138.832125,9.89583333 C138.832125,10.973916 138.673508,11.8933139 138.356275,12.6540269 C138.039042,13.41474 137.591277,13.9959138 137.01298,14.3975483 C136.434682,14.7991828 135.74336,15 134.939012,15 C134.143972,15 133.456351,14.8378747 132.87615,14.5136242 C132.295949,14.1893737 131.852627,13.6827257 131.546183,12.9936801 C131.23974,12.3046346 131.086518,11.4152481 131.086518,10.3255208 L131.086518,9.79674797 L133.352952,9.79674797 Z M142.764736,14.7560976 L142.764736,4.59349593 L144.897888,4.59349593 L144.993725,5.96068343 C145.310852,5.43434536 145.71218,5.03424585 146.197708,4.76038491 C146.683237,4.48652397 147.23731,4.3495935 147.859929,4.3495935 C148.676336,4.3495935 149.366866,4.53103828 149.931517,4.89392785 C150.496169,5.25681741 150.907123,5.8147019 151.164379,6.5675813 C151.466274,5.84942412 151.888493,5.30022019 152.431037,4.91996951 C152.97358,4.53971883 153.611273,4.3495935 154.344114,4.3495935 C155.512767,4.3495935 156.416178,4.72608613 157.054347,5.47907139 C157.673177,6.20923892 157.988288,7.31711803 157.999809,8.80270873 L158,14.7560976 L155.733424,14.7560976 L155.733424,9.55284553 C155.733424,8.74280149 155.646949,8.11785442 155.473999,7.67800432 C155.301049,7.23815422 155.066324,6.92920054 154.769824,6.75114329 C154.473324,6.57308604 154.126949,6.48119919 153.730698,6.47548272 C153.023244,6.46383808 152.47721,6.71610349 152.092595,7.23227896 C151.70798,7.74845444 151.515673,8.48894817 151.515673,9.45376016 L151.515673,14.7560976 L149.249239,14.7560976 L149.249239,9.55284553 C149.249239,8.74280149 149.162764,8.11785442 148.989814,7.67800432 C148.816865,7.23815422 148.582087,6.92920054 148.285481,6.75114329 C147.988875,6.57308604 147.642552,6.48119919 147.246513,6.47548272 C146.539059,6.46383808 145.993025,6.71610349 145.60841,7.23227896 C145.223795,7.74845444 145.031488,8.48894817 145.031488,9.45376016 L145.031488,14.7560976 L142.764736,14.7560976 Z" id="path-2"></path>
    </defs>
    <g id="Alt-markalar" stroke="none" stroke-width="1" fill="none" fill-rule="evenodd">
        <g transform="translate(-380, -1187)" fill-rule="nonzero" id="Tsoft-premium">
            <g transform="translate(380, 1187)">
                <polygon id="Path" fill="#FF5D00" points="4.36848672 14.7560976 4.36848672 2.68610264 -1.42000061e-14 2.68610264 -1.42000061e-14 0.528455285 11.0849636 0.528455285 11.0849636 2.68610264 6.72504508 2.68610264 6.72504508 14.7560976"></polygon>
                <path d="M9.87663791,9.69067581 L9.87663791,7.71944868 L15.969544,7.71944868 L15.969544,9.69067581 L9.87663791,9.69067581 Z M21.6346835,15 C20.8940146,15 20.215121,14.9124005 19.5980027,14.7372015 C18.9808844,14.5620025 18.4368069,14.3195291 17.9657703,14.0097815 C17.4947337,13.7000339 17.1073158,13.3520177 16.8035167,12.965733 C16.4997177,12.5794483 16.2908029,12.1714092 16.1767725,11.7416159 L18.4781139,11.0295986 C18.6617473,11.5381521 19.0105556,11.9804899 19.5245388,12.356612 C20.0385219,12.7327342 20.6752624,12.9267234 21.43476,12.9385798 C22.307865,12.9442962 23.0037891,12.7634337 23.5225324,12.3959921 C24.0412756,12.0285506 24.3006472,11.5451389 24.3006472,10.9457571 C24.3006472,10.414126 24.0828999,9.97379954 23.6474052,9.62477769 C23.2119105,9.27575584 22.6261559,9.00745257 21.8901413,8.81986789 L20.1511243,8.37525407 C19.4817509,8.20100779 18.8825623,7.94254954 18.3535584,7.59987932 C17.8245545,7.2572091 17.4077828,6.82831555 17.1032433,6.31319868 C16.7987038,5.79808181 16.646434,5.19213669 16.646434,4.49536331 C16.646434,3.1691438 17.0773802,2.13578718 17.9392725,1.39529345 C18.8011648,0.654799712 20.0367766,0.284552846 21.6461077,0.284552846 C22.5630054,0.284552846 23.3613771,0.42481792 24.0412227,0.705348069 C24.7210683,0.985878218 25.2849266,1.36570545 25.7327975,1.84482978 C26.1806684,2.3239541 26.5131338,2.87061738 26.7301935,3.48481961 L24.4488445,4.21430386 C24.2499788,3.67314533 23.8998483,3.22646723 23.3984529,2.87426956 C22.8970575,2.5220719 22.2743329,2.34597307 21.530279,2.34597307 C20.7612612,2.34597307 20.1550382,2.52874111 19.71161,2.89427718 C19.2681819,3.25981326 19.0464678,3.76259739 19.0464678,4.40262957 C19.0464678,4.93235518 19.2213215,5.34272315 19.5710289,5.63373349 C19.9207363,5.92474382 20.38934,6.14477473 20.97684,6.29382622 L22.7247425,6.72668953 C24.0084839,7.03622544 24.9993745,7.57187923 25.6974142,8.33365091 C26.3954539,9.09542259 26.7444738,9.93426067 26.7444738,10.8501651 C26.7444738,11.6614795 26.5485699,12.3788427 26.1567622,13.0022548 C25.7649545,13.6256669 25.1889316,14.1144775 24.4286935,14.4686865 C23.6684554,14.8228955 22.7371187,15 21.6346835,15 Z M35.6573063,15 C34.2550916,15 33.012234,14.6868648 31.9287333,14.0605945 C30.8452327,13.4343242 29.9958753,12.567539 29.380661,11.4602388 C28.7654467,10.3529387 28.4578396,9.08367209 28.4578396,7.65243902 C28.4578396,6.20744411 28.7634898,4.93277862 29.3747902,3.82844258 C29.9860906,2.72410654 30.8276204,1.85885628 31.8993795,1.23269182 C32.9711386,0.606527354 34.2077024,0.293445122 35.6090708,0.293445122 C37.0104392,0.293445122 38.2490127,0.608485772 39.3247914,1.23856707 C40.4005702,1.86864837 41.2422057,2.73585705 41.8496981,3.84019309 C42.4571904,4.94452913 42.7609366,6.21485434 42.7609366,7.6511687 C42.7609366,9.0828252 42.4586713,10.3524094 41.8541408,11.4599212 C41.2496103,12.5674331 40.4140571,13.4343242 39.3474812,14.0605945 C38.2809053,14.6868648 37.050847,15 35.6573063,15 Z M35.659845,12.8423526 C36.5816086,12.8423526 37.3954241,12.6203633 38.1012915,12.1763847 C38.8071589,11.732406 39.3602276,11.1204268 39.7604977,10.3404472 C40.1607678,9.56046748 40.3609028,8.66382961 40.3609028,7.65053354 C40.3609028,6.63723747 40.1570126,5.73980564 39.7492322,4.95823806 C39.3414517,4.17667048 38.7823007,3.56342099 38.071779,3.11848958 C37.3612573,2.67355818 36.5400372,2.45109248 35.6081187,2.45109248 C34.6878361,2.45109248 33.8697894,2.67339939 33.1539787,3.11801321 C32.438168,3.56262703 31.8765311,4.17540015 31.469068,4.95633257 C31.0616049,5.73726499 30.8578734,6.6350144 30.8578734,7.64958079 C30.8578734,8.66414719 31.0628214,9.56126143 31.4727174,10.3409235 C31.8826134,11.1205856 32.4495393,11.732406 33.173495,12.1763847 C33.8974507,12.6203633 34.7262341,12.8423526 35.659845,12.8423526 Z M45.2396667,14.7560976 L45.2396667,0.528455285 L54.0883434,0.528455285 L54.0883434,2.68610264 L47.5962251,2.68610264 L47.5962251,6.67079522 L53.1356922,6.67079522 L53.1356922,8.82876016 L47.5962251,8.82876016 L47.5962251,14.7560976 L45.2396667,14.7560976 Z M59.3561647,14.7560976 L59.3561647,2.68610264 L54.987678,2.68610264 L54.987678,0.528455285 L66.0726417,0.528455285 L66.0726417,2.68610264 L61.7127231,2.68610264 L61.7127231,14.7560976 L59.3561647,14.7560976 Z" id="Shape" fill="#3B3735"></path>
                <g id="Shape">
                    <use fill="#3B3735" xlink:href="#path-2"></use>
                    <use fill="url(#linearGradient-1)" xlink:href="#path-2"></use>
                </g>
                <path d="M71.7310919,0.554513237 C71.875006,0.554513237 71.9916715,0.612845952 71.9916715,0.684803002 L71.9916715,14.7926999 C71.9916715,14.8646569 71.875006,14.9229897 71.7310919,14.9229897 C71.5871778,14.9229897 71.4705124,14.8646569 71.4705124,14.7926999 L71.4705124,0.684803002 C71.4705124,0.612845952 71.5871778,0.554513237 71.7310919,0.554513237 Z" id="Path-2-Copy-5" fill="#979797"></path>
            </g>
        </g>
    </g>
</svg>