G04 ===== Begin FILE IDENTIFICATION =====*
G04 File Format:  Gerber RS274X*
G04 ===== End FILE IDENTIFICATION =====*
%FSLAX24Y24*%
%MOIN*%
%SFA1.0000B1.0000*%
%OFA0.0B0.0*%
%ADD14R,0.053748X0.742232*%
%ADD15R,0.078736X0.053748*%
%ADD16R,0.137795X0.039370*%
%ADD17R,0.053748X0.196854*%
%LNcond*%
%IPPOS*%
%LPD*%
G75*
D14*
X0Y3711D03*
X1435D03*
G36*
G01X-269Y0D02*
G01Y-537D01*
G01X269D01*
G01Y0D01*
G01X-269D01*
G37*
D15*
X-662Y-269D03*
G36*
G01X-1056Y0D02*
G01X-1594D01*
G01Y-537D01*
G01X-1056D01*
G01Y0D01*
G37*
D14*
X-2065Y3711D03*
X-1325D03*
G36*
G01X-2333Y7422D02*
G01X-1796D01*
G01Y7960D01*
G01X-2333D01*
G01Y7422D01*
G37*
D15*
X-2727Y7691D03*
G36*
G01X-3121Y7422D02*
G01Y7960D01*
G01X-3658D01*
G01Y7422D01*
G01X-3121D01*
G37*
G36*
G01X-3121Y7422D02*
G01X-3843D01*
G01Y6885D01*
G01X-2936D01*
G01Y7154D01*
G01X-3121D01*
G01Y7422D01*
G37*
D16*
X-4532Y7154D03*
D17*
X-3389Y5901D03*
G36*
G01X1704Y7422D02*
G01Y7960D01*
G01X1166D01*
G01Y7422D01*
G01X1704D01*
G37*
D15*
X2097Y7691D03*
G36*
G01X2491Y7422D02*
G01X3028D01*
G01Y7960D01*
G01X2491D01*
G01Y7422D01*
G37*
D14*
X2760Y3711D03*
X4478D03*
G36*
G01X4747Y0D02*
G01X4209D01*
G01Y-537D01*
G01X4747D01*
G01Y0D01*
G37*
D15*
X5141Y-269D03*
G36*
G01X5534Y0D02*
G01Y-537D01*
G01X6072D01*
G01Y0D01*
G01X5534D01*
G37*
D14*
X5803Y3711D03*
X7522D03*
G36*
G01X7790Y7422D02*
G01Y7960D01*
G01X7253D01*
G01Y7422D01*
G01X7790D01*
G37*
D15*
X8184Y7691D03*
G36*
G01X8578Y7422D02*
G01X9115D01*
G01Y7960D01*
G01X8578D01*
G01Y7422D01*
G37*
D14*
X10281Y3711D03*
X8846D03*
G36*
G01X10550Y0D02*
G01X10013D01*
G01Y-537D01*
G01X10550D01*
G01Y0D01*
G37*
D15*
X10944Y-269D03*
G36*
G01X11337Y0D02*
G01Y-537D01*
G01X11875D01*
G01Y0D01*
G01X11337D01*
G37*
D14*
X11606Y3711D03*
X12346D03*
G36*
G01X12615Y7422D02*
G01Y7960D01*
G01X12077D01*
G01Y7422D01*
G01X12615D01*
G37*
D15*
X13008Y7691D03*
G36*
G01X13402Y7422D02*
G01X13939D01*
G01Y7960D01*
G01X13402D01*
G01Y7422D01*
G37*
G36*
G01X13402Y6885D02*
G01X14124D01*
G01Y7422D01*
G01X13217D01*
G01Y7154D01*
G01X13402D01*
G01Y6885D01*
G37*
D17*
X13671Y5901D03*
D16*
X14813Y7154D03*
M02*

