%TF.GenerationSoftware,Altium Limited,Altium Designer,24.6.1 (21)*%
G04 Layer_Physical_Order=1*
G04 Layer_Color=255*
%FSLAX45Y45*%
%MOMM*%
%TF.SameCoordinates,3B8416F1-C8EF-4483-92FF-B4CDE3B21722*%
%TF.FilePolarity,Positive*%
%TF.FileFunction,Copper,L1,Top,Signal*%
%TF.Part,Single*%
G01*
G75*
%TA.AperFunction,ConnectorPad*%
%ADD10R,5.08000X2.28600*%
%ADD11R,5.08000X2.41300*%
%TA.AperFunction,Conductor*%
%ADD12R,3.50000X1.00000*%
%ADD13R,1.35998X18.84900*%
%ADD14R,4.72948X1.36398*%
%ADD15R,1.36500X5.00000*%
%TA.AperFunction,NonConductor*%
%ADD16R,1.36777X18.84794*%
%ADD17R,4.72948X1.36398*%
%ADD18R,1.35998X18.84900*%
%TA.AperFunction,Conductor*%
%ADD19R,1.36398X1.36652*%
%ADD20R,1.99898X1.36652*%
%ADD21R,1.36742X18.85288*%
%TA.AperFunction,ViaPad*%
%ADD22C,1.80000*%
G36*
X3570463Y4634716D02*
X3617453D01*
Y4566390D01*
X3387075D01*
Y4702788D01*
X3570463D01*
Y4634716D01*
D02*
G37*
G36*
X7567407Y4702788D02*
X7430755D01*
Y4839440D01*
X7567407D01*
Y4702788D01*
D02*
G37*
G36*
X7950693Y4566390D02*
X7767305D01*
Y4634716D01*
X7720315D01*
Y4702788D01*
X7950693D01*
Y4566390D01*
D02*
G37*
D10*
X2802660Y4630000D02*
D03*
X8534840Y4625000D02*
D03*
D11*
X2802660Y5068150D02*
D03*
Y4191850D02*
D03*
X8534840Y4186850D02*
D03*
Y5063150D02*
D03*
D12*
X3212497Y4635000D02*
D03*
X8124997D02*
D03*
D13*
X3838069Y3762102D02*
D03*
D14*
X3670949Y4771047D02*
D03*
D15*
X3501747Y4317500D02*
D03*
X7834247D02*
D03*
D16*
X4362130Y3759549D02*
D03*
X4727864Y3760451D02*
D03*
X5837130Y3759549D02*
D03*
X6272864Y3760451D02*
D03*
X7311058Y3759997D02*
D03*
D17*
X4194045Y2748953D02*
D03*
X4895949Y4771047D02*
D03*
X5669044Y2748953D02*
D03*
X6440950Y4771047D02*
D03*
X7142973Y2749401D02*
D03*
D18*
X4025570Y3759602D02*
D03*
X5064424Y3760398D02*
D03*
X5500569Y3759602D02*
D03*
X6609424Y3760398D02*
D03*
X6974498Y3760050D02*
D03*
D19*
X7835504Y4771114D02*
D03*
D20*
X7667356D02*
D03*
D21*
X7499126Y3760144D02*
D03*
D22*
X8675000Y4185000D02*
D03*
X8397500Y4190000D02*
D03*
X8402500Y5070000D02*
D03*
X8670000D02*
D03*
X2950000Y5075000D02*
D03*
X2670000D02*
D03*
X2942500Y4197500D02*
D03*
X2667500Y4195000D02*
D03*
%TF.MD5,5a888bd03300b2279471d23ab7aaaa4f*%
M02*
