%TF.GenerationSoftware,Altium Limited,Altium Designer,24.6.1 (21)*%
G04 Layer_Color=65535*
%FSLAX45Y45*%
%MOMM*%
%TF.SameCoordinates,3B8416F1-C8EF-4483-92FF-B4CDE3B21722*%
%TF.FilePolarity,Positive*%
%TF.FileFunction,Legend,Top*%
%TF.Part,Single*%
G01*
G75*
%TA.AperFunction,NonConductor*%
%ADD23C,0.25000*%
%ADD24C,0.20000*%
%ADD25C,0.25400*%
D23*
X3285000Y4630000D02*
G03*
X3285000Y4630000I-12500J0D01*
G01*
X8077500Y4625000D02*
G03*
X8077500Y4625000I-12500J0D01*
G01*
D24*
X3214140Y4147400D02*
Y5112600D01*
X3094160D02*
X3214140D01*
X3094160Y4147400D02*
X3214140D01*
X8123360Y4142400D02*
Y5107600D01*
Y4142400D02*
X8243340D01*
X8123360Y5107600D02*
X8243340D01*
D25*
X8166067Y5433011D02*
X8115283D01*
X8140675D01*
Y5306052D01*
X8115283Y5280660D01*
X8089892D01*
X8064500Y5306052D01*
X8318418Y5280660D02*
X8216851D01*
X8318418Y5382227D01*
Y5407619D01*
X8293026Y5433011D01*
X8242243D01*
X8216851Y5407619D01*
X1844007Y5438091D02*
X1793223D01*
X1818615D01*
Y5311132D01*
X1793223Y5285740D01*
X1767832D01*
X1742440Y5311132D01*
X1894791Y5285740D02*
X1945574D01*
X1920183D01*
Y5438091D01*
X1894791Y5412699D01*
%TF.MD5,39b6590c10f3453d14c27a680ac50e97*%
M02*
