%TF.GenerationSoftware,Altium Limited,Altium Designer,24.6.1 (21)*%
G04 Layer_Physical_Order=2*
G04 Layer_Color=16711680*
%FSLAX45Y45*%
%MOMM*%
%TF.SameCoordinates,3B8416F1-C8EF-4483-92FF-B4CDE3B21722*%
%TF.FilePolarity,Positive*%
%TF.FileFunction,Copper,L2,Bot,Signal*%
%TF.Part,Single*%
G01*
G75*
%TA.AperFunction,ConnectorPad*%
%ADD11R,5.08000X2.41300*%
%TA.AperFunction,ViaPad*%
%ADD22C,1.80000*%
G36*
X8800000Y5362500D02*
Y5209200D01*
X8547540D01*
Y5063150D01*
Y4917100D01*
X8800000D01*
Y4332900D01*
X8547540D01*
Y4186850D01*
Y4040800D01*
X8800000D01*
Y2545000D01*
X2542500D01*
X2540000Y2546036D01*
Y4045800D01*
X2789960D01*
Y4191850D01*
Y4337900D01*
X2540000D01*
Y4922100D01*
X2789960D01*
Y5068150D01*
Y5214200D01*
X2540000D01*
Y5367500D01*
X8789371D01*
X8800000Y5362500D01*
D02*
G37*
%LPC*%
G36*
X3082060Y5214200D02*
X2815360D01*
Y5080850D01*
X3082060D01*
Y5214200D01*
D02*
G37*
G36*
X8522140Y5209200D02*
X8255440D01*
Y5075850D01*
X8522140D01*
Y5209200D01*
D02*
G37*
G36*
X3082060Y5055450D02*
X2815360D01*
Y4922100D01*
X3082060D01*
Y5055450D01*
D02*
G37*
G36*
X8522140Y5050450D02*
X8255440D01*
Y4917100D01*
X8522140D01*
Y5050450D01*
D02*
G37*
G36*
X3082060Y4337900D02*
X2815360D01*
Y4204550D01*
X3082060D01*
Y4337900D01*
D02*
G37*
G36*
X8522140Y4332900D02*
X8255440D01*
Y4199550D01*
X8522140D01*
Y4332900D01*
D02*
G37*
G36*
X3082060Y4179150D02*
X2815360D01*
Y4045800D01*
X3082060D01*
Y4179150D01*
D02*
G37*
G36*
X8522140Y4174150D02*
X8255440D01*
Y4040800D01*
X8522140D01*
Y4174150D01*
D02*
G37*
%LPD*%
D11*
X2802660Y4191850D02*
D03*
Y5068150D02*
D03*
X8534840Y5063150D02*
D03*
Y4186850D02*
D03*
D22*
X8675000Y4185000D02*
D03*
X8397500Y4190000D02*
D03*
X8402500Y5070000D02*
D03*
X8670000D02*
D03*
X2950000Y5075000D02*
D03*
X2670000D02*
D03*
X2942500Y4197500D02*
D03*
X2667500Y4195000D02*
D03*
%TF.MD5,97a088638262764956d0d25dc50cc63c*%
M02*
