%TF.GenerationSoftware,Altium Limited,Altium Designer,24.6.1 (21)*%
G04 Layer_Color=65535*
%FSLAX45Y45*%
%MOMM*%
%TF.SameCoordinates,938BD6B4-B4CB-411F-8767-7B88C634C079*%
%TF.FilePolarity,Positive*%
%TF.FileFunction,Legend,Top*%
%TF.Part,Single*%
G01*
G75*
%TA.AperFunction,NonConductor*%
%ADD22C,0.25000*%
%ADD23C,0.20000*%
%ADD24C,0.25400*%
D22*
X3285000Y4627500D02*
G03*
X3285000Y4627500I-12500J0D01*
G01*
X8077500Y4625000D02*
G03*
X8077500Y4625000I-12500J0D01*
G01*
D23*
X3214140Y4144900D02*
Y5110100D01*
X3094160D02*
X3214140D01*
X3094160Y4144900D02*
X3214140D01*
X8123360Y4142400D02*
Y5107600D01*
Y4142400D02*
X8243340D01*
X8123360Y5107600D02*
X8243340D01*
D24*
X8166067Y5433011D02*
X8115283D01*
X8140675D01*
Y5306052D01*
X8115283Y5280660D01*
X8089892D01*
X8064500Y5306052D01*
X8318418Y5280660D02*
X8216851D01*
X8318418Y5382227D01*
Y5407619D01*
X8293026Y5433011D01*
X8242243D01*
X8216851Y5407619D01*
X1844007Y5435591D02*
X1793223D01*
X1818615D01*
Y5308632D01*
X1793223Y5283240D01*
X1767832D01*
X1742440Y5308632D01*
X1894791Y5283240D02*
X1945574D01*
X1920183D01*
Y5435591D01*
X1894791Y5410199D01*
%TF.MD5,d46dd31245ebb4e474ab09ef23744b01*%
M02*
